<svg xmlns="http://www.w3.org/2000/svg" width="60" height="37"><path fill="#161616" fill-rule="evenodd" d="M22.6 19c-.2-.5-.6-.3-1-.4-.4.1-.9 0-1.3.3-.1.2-.3.2-.5.3l-.2.8c-.1.5 0 1.1.4 1.4.7.7 1.9.5 2.6.1l.6-.9-.1-.8c-.3-.3-.2-.7-.5-.8m23.5 10c-.5-.9-.8-1.8-1.2-2.8-.3-.4-.4-.8-.7-1.2-.2-.7-.9-1.2-.9-2-.5-.7-.9-1.4-1.4-2.1-.3-.2-.4-.5-.5-.8-.6-.8-1.2-1.6-1.9-2.4-.3.1-.3-.4-.6-.4-.5-.4-.6-1.1-1.2-1.5-.3-.3-.8-.4-.8-.9l1.5-1.8c.6-.9 1.4-1.4 1.8-2.4.8-1.6 2.4-2.9 2.5-4.8-.1-.2-.3-.2-.5-.3-.4.1-.9 0-1.1.5-.8.5-1.7.9-2.5 1.4-.2.1-.4.3-.7.3-.5.3-1 .6-1.5 1-.3.1-.5.2-.8.3-.2.5-.7.5-1.1.8-.8.6-1.8.9-2.6 1.4-.2.1-.2.3-.4.3-.2.1-.5 0-.6-.1-.6-.9-1.6-1.3-2.4-1.8-.6-.5-1.4-.8-2.1-1-.7-.1-1.3-.4-2-.5-.2.1-.5 0-.7.1-.1.1-.2.2-.2.4.2.3 0 .8.2 1.1.2 1 1 1.8 1.4 2.8l1.1 1.5v.2c-.4 0-.7-.2-1.1-.2-1.1 0-2.3-.2-3.4-.2-.6.1-1.3-.1-2 0-1 .2-2.1.2-3 .5-1 .4-2 .6-2.7 1.5v.1c.3.2.5.5.8.5.4 0 .7.3 1.1.2.5.3 1.2.3 1.8.5.3.2.6.1.9.1.4.3 1 .2 1.5.3 1.2.2 2.4.4 3.6.4.7.2 1.5 0 2.3.1.1 0 .1 0 .1.1-.3 1.1-.7 2.2-1.1 3.3v.7c-.4.3-.4.7-.5 1 0 .4 0 .8-.2 1.1-.1.6-.2 1.1-.4 1.6 0 .4-.1.8-.3 1.2.1.6-.2 1.1-.2 1.7l.1.2c-.1.4 0 .9-.1 1.3.2.3 0 .7.2 1 0 .2.3.2.4.2.3-.2.6-.4.9-.7 1.2-.9 1.7-2.3 2.6-3.5.7-1.1 1.2-2.3 1.9-3.4.2-.7.8-1.3.8-2.1.4-.5.2-1.3.7-1.8.1-.1 0-.3.1-.4.8.4 1.5 1.1 2.2 1.5.3.1.5.5.8.6.5.4.9.7 1.4 1.1 1 .6 1.8 1.5 2.8 2.1.4.2.5.7.9.8 1 .9 2.2 1.5 3.3 2.4 1 .6 2.1 1.2 3.2 1.6.2 0 .4.2.5.1-.1-.4.1-.6 0-.8m-23.7-2.7c-.1-.6-.3-1.1-.6-1.6-.3-.1-.3-.5-.6-.6-.2 0-.4-.1-.7-.1-.2.2-.5-.1-.8 0-.1.2-.4.1-.6.1-.5.3-1.2.4-1.4 1.1-.4.2-.3.7-.7.9l-.3 1.2.1.7c-.1.4.2.8 0 1.2 0 .3.3.5.5.8.4.3.7.6 1.1.8.2.2.5.2.7.3.4 0 .9.1 1.2-.1.5.1.6-.6 1-.7.2.1.3-.3.5-.4.2-.5.5-1 .5-1.5.1-.3.2-.7.1-1l-.1-.1c.3-.5 0-.7.1-1m30.4-1.8c.1 0 .2-.1.2-.3 0-.1-.1-.2-.2-.2s-.2.1-.2.2c0 .2.1.3.2.3m0-1.5c.1 0 .2-.1.2-.2s-.1-.2-.2-.2-.2.1-.2.3c0 0 .1.1.2.1m0-1.5c.1 0 .2-.1.2-.2s-.1-.3-.2-.3-.2.1-.2.2c0 .2.1.3.2.3m.1 8.8c.1 0 .2-.1.2-.2s-.1-.2-.2-.2-.2.1-.2.2c-.1.1 0 .2.2.2m-.1-10.2c.1 0 .2-.1.2-.2s-.1-.2-.2-.2-.2.1-.2.2c-.1.1.1.2.2.2m0 7.3c.1 0 .2-.1.2-.2s-.1-.2-.2-.2-.2.1-.2.2.1.2.2.2m-.1-20.5c.1 0 .2-.1.2-.2s-.1-.2-.2-.2-.2.1-.2.3c0 0 .1.1.2.1m.1 22c.1 0 .2-.1.2-.2s-.1-.2-.2-.2-.2.1-.2.3c0 0 .1.1.2.1m.1 2.9c.1 0 .2-.1.2-.3 0-.1-.1-.2-.2-.2s-.2.1-.2.2c-.1.2 0 .3.2.3m-.2-22c.1 0 .2-.1.2-.3 0-.1-.1-.2-.2-.2s-.2.1-.2.2c0 .2.1.3.2.3m0-1.5c.1 0 .2-.1.2-.2s-.1-.2-.2-.2-.2.1-.2.2.1.2.2.2m0 3c.1 0 .2-.1.2-.2s-.1-.2-.2-.2-.2.1-.2.2.1.2.2.2m.1 4.4c.1 0 .2-.1.2-.2s-.1-.2-.2-.2-.2.1-.2.3c-.1 0 0 .1.2.1m0 1.4c.1 0 .2-.1.2-.2s-.1-.2-.2-.2-.2.1-.2.2c-.1.1 0 .2.2.2m0-2.9c.1 0 .2-.1.2-.2s-.1-.2-.2-.2-.2.1-.2.2c-.1.1 0 .2.2.2m0 4.4c.1 0 .2-.1.2-.2s-.1-.2-.2-.2-.2.1-.2.2c-.1.1 0 .2.2.2m-.1-5.9c.1 0 .2-.1.2-.2s-.1-.2-.2-.2-.3.1-.3.2c.1.1.2.2.3.2m.1 13.2c.1 0 .2-.1.2-.2s-.1-.2-.2-.2-.2.1-.2.3c0 0 .1.1.2.1m.1 7.4c.1 0 .2-.1.2-.2s-.1-.3-.2-.2c-.1 0-.2.1-.2.2-.1.1 0 .2.2.2m1.1-22c.2 0 .3-.2.3-.3 0-.2-.2-.3-.3-.3-.2 0-.3.1-.3.3 0 .2.1.3.3.3m0 4.4c.2 0 .3-.2.3-.3 0-.2-.2-.3-.3-.3-.2 0-.3.2-.3.3 0 .2.2.3.3.3m0-2.9c.2 0 .3-.2.3-.3 0-.2-.1-.3-.3-.3-.2 0-.3.2-.3.4 0 .1.1.2.3.2m.1 8.8c.2 0 .3-.2.3-.3 0-.2-.2-.3-.3-.3-.2 0-.3.2-.3.4-.1.1.1.2.3.2m0-1.5c.2 0 .3-.2.3-.3 0-.2-.2-.3-.3-.3-.2 0-.3.2-.3.3-.1.2.1.3.3.3m0-1.4c.2 0 .3-.2.3-.3 0-.2-.2-.3-.3-.3-.2 0-.3.2-.3.3-.1.1.1.3.3.3m0-1.5c.2 0 .3-.2.3-.3 0-.2-.2-.3-.3-.3-.2 0-.3.2-.3.3-.1.2.1.3.3.3m-.1-2.9c.2 0 .3-.2.3-.3 0-.2-.2-.3-.3-.3-.2 0-.3.1-.3.3 0 .1.1.3.3.3m0-13.2c.2 0 .3-.2.3-.3 0-.2-.2-.3-.4-.3s-.3.1-.3.3c0 .1.2.3.4.3m0 1.5c.2 0 .3-.2.3-.3 0-.2-.2-.3-.3-.3-.2 0-.3.2-.3.3-.1.1.1.3.3.3m-1.1 32.1c.1 0 .2-.1.2-.2s-.1-.2-.2-.2-.2.1-.2.3c0 0 .1.1.2.1M54 9.9c.2 0 .3-.2.3-.3 0-.2-.2-.3-.3-.3-.2 0-.3.2-.3.3 0 .1.1.3.3.3m-1.1 25.8c-.1 0-.2.1-.2.2s.1.2.2.2.2-.1.2-.2-.1-.2-.2-.2M54 8.4c.2 0 .3-.2.3-.3 0-.2-.2-.3-.3-.3-.2 0-.3.2-.3.3 0 .2.1.3.3.3m0-2.9c.2 0 .3-.2.3-.3 0-.2-.1-.3-.3-.3-.2 0-.3.2-.3.3-.1.1.1.3.3.3m0 1.4c.2 0 .3-.2.3-.3 0-.2-.2-.3-.3-.3-.2 0-.3.2-.3.3-.1.2.1.3.3.3m.1 16.2c.2 0 .3-.2.3-.3 0-.2-.2-.3-.3-.3-.2 0-.3.1-.3.3-.1.1.1.3.3.3M54 4c.2 0 .3-.2.3-.3 0-.2-.1-.3-.3-.3-.2 0-.3.2-.3.3-.1.2.1.3.3.3m-2.6 2.8c.1 0 .2-.1.2-.1 0-.1-.1-.2-.2-.2s-.2.1-.2.2c.1 0 .1.1.2.1m0-1.5c.1 0 .2-.1.2-.2s-.1-.2-.1-.2c-.1 0-.2.1-.2.1 0 .2 0 .3.1.3m0-1.4c.1 0 .2-.1.2-.2s-.1-.2-.2-.2-.2.1-.2.2.1.1.2.2m0 4.4c.1 0 .2-.1.2-.2s-.1-.2-.2-.2-.2.1-.2.2c.1.1.1.2.2.2m.1 4.3c.1 0 .2-.1.2-.2s-.1-.2-.1-.2c-.1 0-.1.1-.2.1-.1.3 0 .3.1.3m0 1.5c.1 0 .2-.1.2-.1 0-.1-.1-.2-.2-.2s-.2.1-.2.2c0 0 .1.1.2.1m-.1-4.4c.1 0 .2-.1.2-.2s-.1-.2-.2-.2-.2.1-.2.2l.2.2m0-7.3c.1 0 .2-.1.2-.2s-.1-.2-.2-.2-.2.1-.2.2.1.2.2.2m1.3 3c.1 0 .2-.1.2-.2s-.1-.2-.2-.2-.2.1-.2.3c-.1 0 .1.1.2.1M8.6 29.1c.1 0 .2-.1.2-.1 0-.1-.1-.2-.1-.2-.1 0-.2.1-.2.2-.1 0 0 .1.1.1m0-3c.1 0 .2-.1.2-.2s-.1-.2-.1-.2c-.1 0-.2.1-.2.2-.1.2 0 .2.1.2m0 1.5c.1 0 .2-.1.2-.2s-.1-.2-.2-.2-.2.1-.2.2.1.2.2.2m0 2.9c.1 0 .2-.1.2-.1 0-.1-.1-.2-.2-.2s-.2.1-.2.2.1.1.2.1m0 5.6c-.1 0-.2.1-.2.2s.1.2.2.2.2-.1.2-.1c0-.2-.1-.3-.2-.3M51.4.9c.1 0 .2-.1.2-.2s-.1-.2-.2-.2-.1.1-.1.2c-.1.2 0 .2.1.2M8.6 32c.1 0 .2-.1.2-.2s-.1-.2-.1-.2c-.1 0-.2.1-.2.2-.1.1 0 .2.1.2m0 2.9c.1 0 .2-.1.2-.2s-.1-.2-.1-.2c-.1 0-.2.1-.2.2 0 .2 0 .2.1.2m0-1.4c.1 0 .2-.1.2-.2s-.1-.2-.1-.2c-.1 0-.2.1-.2.2-.1.1 0 .2.1.2m42.8-22.3c.1 0 .2-.1.2-.2s-.1-.2-.2-.2-.2.1-.2.2l.2.2m.2 23.4c.1 0 .2-.1.2-.2s-.1-.2-.2-.2-.2.1-.2.2c0 .2.1.2.2.2m0-4.4c.1 0 .2-.1.2-.2s-.1-.2-.2-.2-.2.1-.2.2c0 .2.1.2.2.2m0 1.5c.1 0 .2-.1.2-.2s-.1-.2-.2-.2-.2.1-.2.1c0 .2.1.3.2.3m0 1.5c.1 0 .2-.1.2-.2s-.1-.2-.2-.2-.2.1-.2.2.1.2.2.2m1.1-29.3c.1 0 .2-.1.2-.2s-.1-.2-.2-.2-.2.1-.2.3c-.1 0 0 .1.2.1m-1.1 31.9c-.1 0-.2.1-.2.2s.1.2.1.2c.1 0 .2-.1.2-.1.1-.2 0-.3-.1-.3m1.1-33.3c.1 0 .2-.1.2-.2s-.1-.2-.2-.2-.2.1-.2.2c-.1.1 0 .2.2.2m0-1.5c.1 0 .2-.1.2-.2s-.1-.2-.2-.2-.2.1-.2.2c-.1.1 0 .2.2.2m-1.2 24.9c.1 0 .2-.1.2-.2s-.1-.2-.2-.2-.2.1-.2.2l.2.2m0-5.9c.1 0 .2-.1.2-.2s-.1-.2-.1-.2c-.1 0-.2.1-.2.1 0 .2 0 .3.1.3m0-1.5c.1 0 .2-.1.2-.2s-.1-.2-.2-.2-.2.1-.2.1c0 .2.1.3.2.3m0 3c.1 0 .2-.1.2-.1 0-.1-.1-.2-.2-.2s-.2.1-.2.2c.1 0 .1.1.2.1m0-4.5c.1 0 .2-.1.1-.2 0-.1-.1-.1-.1-.1-.1 0-.2.1-.2.2s.1.1.2.1m.1 11.8c.1 0 .2-.1.2-.1 0-.1-.1-.2-.2-.2s-.2.1-.2.2c0 0 .1.1.2.1m-.1-5.9c.1 0 .2-.1.2-.1 0-.1-.1-.1-.2-.1s-.2.1-.2.1.1.1.2.1m.1 4.4c.1 0 .2-.1.2-.2s-.1-.2-.2-.2-.2.1-.2.2c0 .2.1.2.2.2m-.1-11.7c.1 0 .2-.1.2-.2s-.1-.2-.2-.2-.2.1-.2.2.1.2.2.2m0 8.8c.1 0 .2-.1.2-.2s-.1-.2-.2-.2-.2.1-.2.2c.1.1.1.2.2.2M55.3 7c.2 0 .4-.2.4-.4s-.2-.4-.4-.4-.4.2-.4.4c-.1.2.1.4.4.4m1.4 17.7c.3 0 .5-.2.5-.5s-.2-.5-.5-.5-.5.2-.5.5c-.1.3.2.5.5.5m0 1.5c.3 0 .5-.2.5-.5s-.2-.5-.5-.5-.5.2-.5.5c-.1.3.2.5.5.5m-.1-2.9c.3 0 .5-.3.5-.6s-.2-.5-.5-.5-.5.2-.5.5.3.6.5.6m.1 8.8c.3 0 .5-.2.5-.5s-.2-.5-.5-.5-.5.2-.5.5c0 .2.2.5.5.5m-.1-10.3c.3 0 .5-.2.5-.5s-.2-.5-.5-.5-.5.2-.5.5.3.5.5.5m.1 8.8c.3 0 .5-.2.5-.5s-.2-.5-.5-.5-.5.2-.5.5.2.5.5.5m0-2.9c.3 0 .5-.2.6-.5 0-.3-.2-.5-.5-.6h-.1c-.3 0-.5.2-.5.5s.2.6.5.6m0 1.4c.3 0 .5-.2.6-.5 0-.3-.2-.5-.5-.6h-.1c-.3 0-.5.2-.5.5 0 .4.2.6.5.6m-.1-10.3c.3 0 .5-.2.5-.5s-.2-.5-.5-.5-.5.2-.5.5.2.5.5.5m0-7.3c.3 0 .5-.2.5-.5s-.2-.5-.5-.5-.5.2-.5.5c-.1.3.2.5.5.5m0-2.9c.3 0 .5-.2.5-.5s-.2-.5-.5-.5-.5.2-.5.5c-.1.3.2.5.5.5m0 4.4c.3 0 .5-.2.5-.5s-.2-.5-.5-.5-.5.2-.5.5.2.5.5.5m0-3c.3 0 .5-.2.6-.5s-.3-.5-.6-.5h-.1c-.2 0-.5.2-.5.5s.3.5.6.5m0 7.4c.3 0 .5-.2.5-.5s-.2-.5-.5-.5-.5.2-.5.5c0 .2.2.5.5.5m.1 16.1c.3 0 .5-.2.5-.5s-.2-.5-.5-.5-.5.2-.5.5.2.5.5.5m0 1.5c.3 0 .5-.2.5-.5s-.2-.5-.5-.5-.5.2-.5.5c0 .2.2.5.5.5m-.1-19.1c.3 0 .5-.3.5-.6s-.2-.5-.5-.5-.5.2-.5.5c0 .4.2.6.5.6m0 4.4c.3 0 .5-.2.5-.5s-.2-.5-.5-.5-.5.2-.5.5.2.5.5.5m0-5.8c.3 0 .5-.2.5-.5s-.2-.5-.5-.5-.5.2-.5.5c0 .2.2.4.5.5M58 29.2c.3 0 .5-.2.6-.5.1.3.3.6.7.6.4 0 .7-.3.7-.7 0-.4-.3-.7-.7-.7-.4 0-.7.3-.7.7-.1-.3-.4-.6-.7-.5-.3 0-.5.3-.5.6 0 .2.2.5.6.5M56.5 7.1c.3 0 .5-.2.5-.5s-.2-.5-.5-.5-.5.2-.5.5.3.5.5.5M58 30.7c.3 0 .5-.2.6-.5 0 .4.4.7.8.6.4 0 .7-.4.6-.8 0-.4-.3-.7-.7-.7-.3 0-.6.3-.7.6 0-.3-.3-.5-.6-.5s-.6.3-.6.6c0 .4.2.7.6.7m0-3c.3 0 .5-.2.6-.5.1.3.3.6.7.6.4 0 .7-.3.7-.7.1-.4-.2-.7-.6-.8s-.7.2-.8.6v.1c0-.3-.3-.5-.6-.5s-.6.3-.6.6c-.1.4.2.6.6.6m-3.9-3.1c.2 0 .3-.2.3-.3 0-.2-.2-.3-.3-.3-.2 0-.3.2-.3.3 0 .1.1.3.3.3m5.2 10.6c-.3 0-.6.3-.7.6 0-.3-.3-.5-.6-.5s-.6.3-.6.6.3.6.6.6.5-.2.6-.5c0 .4.4.7.8.6.4 0 .6-.4.6-.7 0-.4-.3-.7-.7-.7M58 32.1c.3 0 .5-.2.6-.5 0 .4.4.7.8.6.4 0 .6-.4.6-.7 0-.4-.3-.7-.7-.7-.3 0-.6.3-.7.6 0-.3-.3-.5-.6-.5s-.6.3-.6.6c0 .4.2.6.6.6m0-5.8c.3 0 .5-.2.6-.5 0 .4.4.7.8.6.4 0 .6-.4.6-.7 0-.4-.3-.7-.7-.7-.3 0-.6.3-.7.6 0-.3-.3-.5-.6-.5s-.6.3-.6.6c-.1.3.2.6.6.6m0 8.8c.3 0 .5-.2.6-.5.1.3.3.6.7.6.4 0 .7-.3.7-.7 0-.4-.3-.7-.7-.7-.3 0-.6.3-.7.6 0-.3-.3-.5-.6-.5s-.6.3-.6.6.3.6.6.6m-.1-13.2c.3 0 .5-.2.6-.5.1.3.3.6.7.6.4 0 .7-.3.7-.7 0-.4-.3-.7-.7-.7-.3 0-.6.3-.7.6 0-.3-.3-.5-.6-.5s-.6.3-.6.6.3.6.6.6m0-5.9c.3 0 .5-.2.6-.5.1.3.3.6.7.6.4 0 .7-.3.7-.7 0-.4-.3-.7-.7-.7-.3 0-.6.3-.7.6 0-.3-.3-.5-.6-.5s-.6.3-.6.6.2.6.6.6m0-1.5c.3 0 .5-.2.6-.5 0 .3.3.6.7.6.4 0 .7-.3.7-.7 0-.4-.3-.7-.7-.7-.3 0-.6.3-.7.6 0-.3-.3-.5-.6-.5s-.6.3-.6.6c0 .4.2.6.6.6m0 3c.3 0 .5-.2.6-.5.1.3.3.6.7.6.4 0 .7-.3.7-.7 0-.4-.3-.7-.7-.7-.3 0-.6.3-.7.6 0-.3-.3-.5-.6-.5s-.6.3-.6.6.3.6.6.6m-1.2 17.9c-.3 0-.5.2-.5.5s.2.5.5.5.5-.2.5-.5c.1-.3-.2-.5-.5-.5m1.2-15c.3 0 .5-.2.6-.5 0 .4.4.7.8.6.4 0 .7-.4.6-.8.1-.4-.2-.7-.6-.8-.4-.1-.7.2-.8.6v.1c0-.3-.4-.6-.7-.5-.3 0-.5.3-.5.6 0 .4.3.7.6.7m0 2.9c.3 0 .5-.2.6-.5.1.3.3.6.7.6.4 0 .7-.3.7-.7 0-.4-.3-.7-.7-.7-.3 0-.6.3-.7.6 0-.3-.3-.5-.6-.5s-.6.3-.6.6c0 .4.3.6.6.6m0 1.5c.3 0 .5-.2.6-.5.1.3.3.6.7.6.4 0 .7-.3.7-.7 0-.4-.3-.7-.7-.7-.3 0-.6.3-.7.6 0-.3-.4-.6-.7-.5-.3 0-.5.3-.5.6s.3.6.6.6m0-5.9c.3 0 .5-.2.6-.5.1.3.3.6.7.6.4 0 .7-.3.7-.7 0-.4-.3-.7-.7-.7-.3 0-.6.3-.7.6 0-.3-.3-.5-.6-.5s-.6.3-.6.6c0 .4.3.6.6.6m.1 14.7c.3 0 .5-.2.6-.5.1.3.3.6.7.6.4 0 .7-.3.7-.7 0-.4-.3-.7-.7-.7-.4 0-.6.3-.7.6 0-.3-.3-.5-.6-.5s-.6.3-.6.7c0 .2.3.5.6.5m-2.8-28c.2 0 .4-.2.4-.4s-.2-.4-.4-.4-.4.2-.4.4.2.4.4.4M8.5 24.7c.1 0 .2-.1.2-.2s-.1-.2-.2-.2-.2.1-.2.2l.2.2M55.2 4.1c.2 0 .4-.2.4-.4s-.2-.4-.4-.4-.4.2-.4.4.2.4.4.4m.1 4.4c.2 0 .4-.2.4-.4s-.2-.4-.4-.4-.4.2-.4.4c-.1.2.1.4.4.4m0 4.4c.2 0 .4-.2.4-.4s-.2-.4-.4-.4-.4.2-.4.5c0 .1.2.3.4.3m0-1.5c.2 0 .4-.2.4-.4s-.2-.4-.4-.4-.4.2-.4.4.1.4.4.4m0 3c.2 0 .4-.2.4-.4s-.2-.4-.4-.4-.4.2-.4.4.2.4.4.4m1.2-8.7c.3 0 .5-.2.6-.5 0-.3-.2-.5-.5-.6h-.1c-.3 0-.5.2-.5.5s.3.6.5.6m-1.3-3.1c.2 0 .4-.2.4-.4s-.2-.4-.4-.4-.4.2-.4.4.2.4.4.4M54.1 29c.2 0 .3-.2.3-.3 0-.2-.1-.3-.3-.3-.2 0-.3.2-.3.3 0 .1.1.3.3.3m0 1.4c.2 0 .3-.2.3-.3 0-.2-.2-.3-.3-.3-.2 0-.3.2-.3.3 0 .2.1.3.3.3m1.1-29.2c.2 0 .4-.2.4-.4s-.2-.4-.4-.4-.4.2-.4.4.2.4.4.4m-1.1 26.3c.2 0 .3-.2.3-.3 0-.2-.1-.3-.3-.3-.2 0-.3.2-.3.3 0 .1.1.3.3.3m0-1.5c.2 0 .3-.2.3-.3 0-.2-.1-.3-.3-.3-.2 0-.3.2-.3.3 0 .2.1.3.3.3m0 5.9c.2 0 .3-.2.3-.4s-.2-.3-.3-.3c-.2 0-.3.2-.3.3 0 .2.2.4.3.4m.1 3.7c-.2 0-.3.2-.3.3 0 .2.2.3.3.3.2 0 .3-.2.3-.3 0-.1-.1-.3-.3-.3m0-.8c.2 0 .3-.2.3-.3 0-.2-.2-.3-.3-.3-.2 0-.3.2-.3.3-.1.2.1.3.3.3m0-1.5c.2 0 .3-.2.3-.3 0-.2-.2-.3-.3-.3s-.3.2-.3.3c-.1.2.1.3.3.3M55.3 10c.2 0 .4-.2.4-.4s-.2-.4-.5-.4c-.2 0-.4.2-.4.4s.2.4.5.4m.1 20.5c.2 0 .4-.2.4-.5 0-.2-.2-.4-.4-.4s-.4.2-.4.4c0 .3.2.5.4.5m0 4.4c.2 0 .4-.2.4-.4s-.2-.4-.4-.4-.4.2-.4.4.2.4.4.4m0-2.9c.2 0 .4-.2.4-.4s-.2-.4-.4-.4-.4.2-.4.4.2.4.4.4m-.1-16.2c.2 0 .4-.2.4-.4s-.2-.4-.4-.4-.4.2-.4.4.2.4.4.4m1.2-11.6c.3 0 .5-.2.5-.5s-.2-.5-.5-.5-.5.2-.5.5.2.5.5.5m-1.1 31.3c-.2 0-.4.2-.4.5 0 .2.2.4.4.4s.4-.2.4-.4c.1-.3-.1-.5-.4-.5m1.1-32.8c.3 0 .5-.2.5-.5s-.2-.5-.5-.5-.5.3-.5.5c0 .3.2.5.5.5m0-1.4c.3 0 .5-.3.5-.6s-.2-.5-.5-.5-.5.2-.5.5.2.6.5.6m-1.1 32.1c.2 0 .4-.2.4-.4s-.2-.4-.4-.4-.4.2-.4.4.2.4.4.4m0-11.7c.2 0 .4-.2.4-.4s-.2-.4-.4-.4-.4.2-.4.4c-.1.2.1.4.4.4m-.1-1.5c.2 0 .4-.2.4-.4s-.2-.4-.4-.4-.4.2-.4.5c0 .1.2.3.4.3m0-2.9c.2 0 .4-.2.4-.4s-.2-.4-.4-.4-.4.2-.4.4.2.4.4.4m0 1.5c.2 0 .4-.2.4-.4s-.2-.4-.4-.4-.4.2-.4.4.2.4.4.4m.1 8.8c.2 0 .4-.2.4-.4s-.2-.4-.5-.4c-.2 0-.4.2-.4.4.1.2.3.4.5.4m0 1.4c.2 0 .4-.2.4-.4s-.2-.4-.4-.4-.4.2-.4.4.2.4.4.4m0-2.9c.2 0 .4-.2.4-.4s-.2-.4-.5-.4c-.2 0-.4.2-.4.4.1.2.2.4.5.4m0-1.5c.2 0 .4-.2.4-.4s-.2-.4-.4-.4-.4.2-.4.5c0 .2.2.3.4.3m0-1.4c.2 0 .4-.2.4-.5 0-.2-.2-.4-.4-.4s-.4.2-.4.4c-.1.3.1.5.4.5m-52 .4c.3 0 .5-.2.5-.5s-.2-.5-.5-.5-.5.2-.5.5.2.5.5.5m0-1.5c.3 0 .5-.2.5-.5s-.2-.5-.5-.5-.5.2-.5.5.2.5.5.5m0 3c.3 0 .5-.2.5-.5s-.2-.5-.5-.5-.5.2-.5.5c0 .2.2.5.5.5M.9 29.7c.3 0 .6-.3.7-.6.1.3.3.5.6.5s.6-.3.6-.6-.2-.6-.5-.7-.6.2-.7.5c-.1-.3-.3-.6-.7-.6-.4 0-.7.3-.7.7 0 .5.3.8.7.8M3.4 28c.3 0 .6-.2.6-.5s-.3-.5-.6-.5-.5.2-.5.5.2.5.5.5m0-1.5c.3 0 .6-.2.6-.5s-.2-.5-.5-.5-.5.2-.5.5c-.1.3.1.5.4.5m0 3c.3 0 .5-.2.5-.5s-.2-.5-.5-.5-.5.2-.5.5c0 .2.3.5.5.5m-1.2 6.2c-.3 0-.5.2-.6.5-.1-.3-.3-.6-.7-.6-.4 0-.7.3-.7.7 0 .4.3.7.7.7.3 0 .6-.3.7-.6.1.3.3.5.6.5s.6-.3.6-.6c0-.4-.2-.6-.6-.6M.9 32.6c.3 0 .6-.3.7-.6.1.3.4.5.7.5.3-.1.5-.3.5-.6.1-.3-.2-.6-.5-.7s-.6.2-.7.5v.1c-.1-.3-.3-.6-.7-.6-.4 0-.7.3-.7.7 0 .4.3.7.7.7m0-1.5c.3 0 .6-.3.7-.6 0 .4.4.6.7.5.3-.1.5-.3.5-.6.1-.3-.2-.6-.5-.7s-.6.2-.7.5v.1c-.1-.3-.3-.6-.7-.6-.4 0-.7.3-.7.7 0 .4.3.7.7.7m0 3c.3 0 .6-.3.7-.6.1.3.3.5.6.5s.6-.3.6-.6-.3-.6-.6-.6-.5.2-.6.5c0-.3-.3-.6-.7-.6-.4 0-.7.3-.7.7 0 .4.3.7.7.7m3.8-10.6c.2 0 .4-.2.4-.4s-.2-.4-.4-.4-.4.2-.4.4.1.4.4.4m-1.3-7.2c.3 0 .5-.2.5-.5s-.2-.5-.5-.5-.5.2-.5.5c-.1.2.2.5.5.5m.1 16.1c.3 0 .5-.2.5-.5s-.2-.5-.5-.5-.5.2-.5.5.2.5.5.5m-.1-17.6c.3 0 .5-.2.5-.5s-.3-.5-.5-.5c-.3 0-.5.2-.5.5-.1.3.2.5.5.5m0 4.4c.3 0 .5-.2.5-.5s-.2-.5-.5-.5-.5.2-.5.5.2.5.5.5m.1 11.7c.3 0 .5-.2.5-.5s-.3-.5-.6-.5-.5.2-.5.5.3.5.6.5m1.1-16.2c.2 0 .4-.2.4-.4s-.2-.4-.4-.4-.4.2-.4.4.2.4.4.4m0 1.5c.2 0 .4-.2.4-.4s-.2-.4-.4-.4-.4.2-.4.4.2.4.4.4m0-3c.3 0 .4-.2.4-.4s-.2-.4-.4-.4-.4.2-.4.4.2.4.4.4m0-1.4c.2 0 .4-.2.4-.4s-.2-.4-.4-.4-.4.2-.4.5c0 .1.2.3.4.3M4.7 22c.2 0 .4-.2.4-.4s-.2-.4-.4-.5c-.2 0-.4.2-.5.4 0 .4.2.5.5.5m0-1.4c.2 0 .4-.2.5-.4 0-.2-.2-.4-.4-.5h-.1c-.2 0-.4.2-.4.5 0 .2.2.3.4.4m-.1-3c.2 0 .4-.2.4-.4s-.2-.4-.4-.4-.4.2-.4.4.2.4.4.4m.1 1.5c.2 0 .4-.2.4-.4s-.2-.4-.4-.4-.4.2-.4.4c-.1.2.1.4.4.4M4.6 7.4c.2 0 .4-.2.4-.5 0-.2-.2-.4-.4-.4s-.4.2-.4.4c0 .3.1.5.4.5m-.1-5.9c.3 0 .5-.2.5-.4S4.8.6 4.5.6s-.4.2-.4.5c0 .2.2.4.4.4m.1 8.8c.2 0 .4-.2.4-.4s-.2-.4-.4-.4-.4.1-.4.4c0 .2.2.4.4.4M3.5 35.8c-.3 0-.5.2-.5.5s.2.5.5.5.5-.2.5-.5-.2-.5-.5-.5m0-.5c.3 0 .5-.2.5-.5s-.2-.5-.5-.5-.5.3-.5.6c0 .2.2.4.5.4M4.6 3c.2 0 .4-.2.4-.5 0-.2-.2-.4-.4-.4s-.4.2-.4.4c-.1.3.1.5.4.5m0 5.8c.2 0 .4-.2.4-.4S4.8 8 4.6 8c-.3 0-.4.2-.4.4s.2.4.4.4M3.5 33.9c.3 0 .5-.2.5-.5s-.2-.5-.5-.5-.5.2-.5.4c0 .3.2.6.5.6M4.6 4.4c.2 0 .4-.2.4-.4s-.2-.4-.4-.4c-.3 0-.5.2-.5.4s.2.4.5.4m0 1.5c.2 0 .4-.2.4-.4 0-.3-.2-.5-.4-.5-.3 0-.5.2-.5.5 0 .2.2.4.5.4M.9 35.5c.3 0 .6-.3.7-.6.1.3.3.5.6.5s.6-.3.6-.6-.3-.6-.6-.6-.5.2-.6.5c-.1-.3-.3-.6-.7-.6-.4 0-.7.3-.7.7 0 .4.3.7.7.7M3.3 9.4c-.3 0-.5.2-.5.5s.2.5.5.5.5-.2.5-.5-.2-.5-.5-.5m0-1.5c-.3 0-.5.2-.5.5s.2.5.5.5.5-.2.5-.5-.2-.5-.5-.5m0 2.9c-.3 0-.5.2-.5.5s.2.5.5.5.5-.2.5-.5c.1-.3-.2-.5-.5-.5m0-9.2c.3 0 .5-.2.5-.5S3.6.6 3.3.6c-.3-.1-.5.1-.6.4 0 .4.3.6.6.6m0 .4c-.3 0-.6.2-.6.5s.3.6.5.6c.3 0 .5-.3.5-.6.1-.3-.2-.5-.4-.5m0 10.3c-.3 0-.5.2-.5.5s.2.5.5.5.5-.2.5-.5c.1-.3-.2-.5-.5-.5M.9 28.2c.3 0 .6-.3.7-.6.1.3.4.6.7.5.3-.1.5-.3.5-.6s-.3-.6-.6-.6-.5.2-.6.5c-.1-.3-.3-.6-.7-.6-.4 0-.7.3-.7.7 0 .4.3.7.7.7M3.3 6.4c-.3 0-.5.3-.5.6s.2.5.5.5.5-.2.5-.5-.2-.6-.5-.6m0-1.4c-.3 0-.5.2-.5.5s.2.5.5.5.5-.3.5-.6c0-.2-.2-.4-.5-.4m55.8 3.8c-.3 0-.6.3-.7.6 0-.3-.3-.5-.6-.5s-.6.3-.6.6.3.6.6.6.5-.2.6-.5c.1.3.3.6.7.6.4 0 .7-.3.7-.7 0-.4-.3-.7-.7-.7m0 1.5c-.3 0-.6.3-.7.6 0-.3-.3-.5-.6-.5s-.6.3-.6.6.3.6.6.6.5-.2.6-.5c.1.4.4.6.8.6.3-.1.6-.4.6-.7 0-.4-.3-.7-.7-.7m-1.3-9c.3 0 .5-.2.6-.5.1.3.3.6.7.6.4 0 .7-.3.7-.7 0-.4-.3-.7-.7-.7-.3 0-.6.3-.7.6 0-.3-.3-.5-.6-.5s-.6.3-.6.6c0 .4.2.6.6.6m1.3 10.4c-.3 0-.6.3-.7.6 0-.3-.3-.5-.6-.5s-.6.3-.6.6.3.6.6.6.5-.2.6-.5c.1.3.3.6.7.6.4 0 .7-.3.7-.7 0-.4-.3-.7-.7-.7m0-4.4c-.3 0-.6.3-.7.6 0-.3-.3-.5-.6-.5s-.6.3-.6.6.3.6.6.6.5-.2.6-.5c.1.3.3.6.7.6.4 0 .7-.3.7-.7 0-.4-.3-.7-.7-.7m0-1.4c-.3 0-.6.3-.7.6 0-.3-.3-.5-.6-.5s-.6.3-.6.6.3.6.6.6.5-.2.6-.5c.1.4.4.6.8.6.3-.1.6-.3.6-.7 0-.4-.3-.7-.7-.7m0-4.4c-.3 0-.6.3-.7.6 0-.3-.3-.5-.6-.5s-.6.3-.6.6.3.6.6.6.5-.2.6-.5c.1.3.3.6.7.6.4 0 .7-.3.7-.7 0-.4-.3-.7-.7-.7m0 1.4c-.3 0-.6.3-.7.6-.1-.3-.4-.5-.7-.5-.3 0-.5.3-.5.6s.3.6.6.6.5-.2.6-.5c.1.3.3.6.7.6.4 0 .7-.3.7-.7 0-.3-.3-.7-.7-.7m0 1.5c-.3 0-.6.3-.7.6 0-.3-.3-.5-.6-.5s-.6.3-.6.6.2.6.5.7.6-.2.7-.5c.1.3.3.6.7.6.4 0 .7-.3.7-.7 0-.5-.3-.8-.7-.8M3.3 3.5c-.3 0-.5.2-.5.5s.2.5.5.5.5-.2.5-.5-.2-.5-.5-.5M.8 20.9c.3 0 .6-.3.7-.6.1.3.3.5.6.5s.6-.3.6-.6-.2-.6-.5-.7-.6.1-.7.5v.1c-.1-.3-.3-.6-.7-.6-.4 0-.7.3-.7.7 0 .3.3.7.7.7m0-4.4c.3 0 .6-.3.7-.6.1.3.3.5.6.5s.6-.3.6-.6-.3-.6-.6-.6-.5.2-.6.5c-.1-.4-.4-.7-.7-.7-.4 0-.7.3-.7.7 0 .5.3.8.7.8m0 1.4c.3 0 .6-.3.7-.6.1.3.3.5.6.5s.6-.3.6-.6-.3-.6-.6-.6-.5.2-.6.5c-.1-.3-.3-.6-.7-.6-.4 0-.7.3-.7.7 0 .4.3.7.7.7m0 1.5c.3 0 .6-.3.7-.6.1.3.3.5.6.5s.6-.3.6-.6-.3-.6-.6-.6-.5.2-.6.5c-.1-.4-.3-.6-.7-.6-.4 0-.7.3-.7.7 0 .4.3.7.7.7m.1 7.3c.3 0 .6-.3.7-.6.1.3.4.5.7.5.3-.1.5-.3.5-.6s-.3-.6-.6-.6-.5.2-.6.5c-.1-.3-.3-.6-.7-.6-.4 0-.7.3-.7.7 0 .4.3.7.7.7m0-2.9c.3 0 .6-.3.7-.6.1.3.3.5.6.5s.6-.3.6-.6-.3-.6-.6-.6-.5.2-.6.5c-.1-.3-.3-.6-.7-.6-.4 0-.7.3-.7.7-.1.4.3.7.7.7-.1 0-.1 0 0 0m-.1-1.5c.3 0 .6-.3.7-.6.1.3.3.5.6.5s.6-.3.6-.6-.3-.6-.6-.6-.5.2-.6.5c-.1-.3-.3-.6-.7-.6-.4 0-.7.3-.7.7 0 .4.4.7.7.7m.1 3c.3 0 .6-.3.7-.6.1.3.3.5.6.5s.6-.3.6-.6-.3-.6-.6-.6-.5.2-.6.5c-.1-.3-.3-.6-.7-.6-.4 0-.7.3-.7.7 0 .4.3.7.7.7M.7 1.8c.3 0 .6-.3.7-.6 0 .3.3.5.6.5s.6-.3.6-.6S2.3.5 2 .5s-.6.2-.6.5C1.3.6 1 .4.7.4c-.4 0-.7.3-.7.7 0 .4.3.7.7.7m0 5.9c.3 0 .6-.3.7-.6.1.3.3.5.6.5s.6-.3.6-.6-.2-.6-.5-.7c-.3 0-.6.2-.7.5v.1c0-.4-.3-.7-.7-.7-.4.1-.7.4-.7.8s.4.7.7.7M.8 15c.3 0 .6-.3.7-.6.1.3.4.6.7.5.3-.1.5-.3.5-.6s-.3-.6-.6-.6-.5.2-.6.5c-.1-.3-.3-.6-.7-.6-.4 0-.7.3-.7.7 0 .4.3.7.7.7M.7 3.3c.3 0 .6-.3.7-.6.1.3.3.5.6.5s.6-.3.6-.6S2.3 2 2 2s-.5.2-.6.5c-.1-.4-.3-.7-.7-.7-.4.1-.7.4-.7.8s.3.7.7.7m0 1.4c.3 0 .6-.3.7-.6.1.3.3.5.6.5s.6-.3.6-.6-.2-.6-.5-.7-.6.2-.7.6V4c0-.4-.3-.7-.7-.7-.4 0-.7.3-.7.7 0 .4.3.7.7.7m0 1.5c.3 0 .6-.3.7-.6 0 .3.4.6.7.5.3 0 .5-.3.5-.6s-.3-.6-.6-.6-.5.2-.6.5c0-.4-.3-.6-.7-.6-.4 0-.7.3-.6.7 0 .4.3.7.6.7m.1 2.9c.3 0 .6-.3.7-.6 0 .3.2.5.5.5s.6-.3.6-.6-.3-.6-.6-.6-.5.2-.6.5c0-.3-.3-.6-.7-.6-.3 0-.7.3-.7.7.1.4.4.7.8.7m0 4.4c.3 0 .6-.3.7-.6.1.3.4.6.7.5.3-.1.5-.3.5-.6s-.3-.6-.6-.6-.5.2-.6.5c-.1-.3-.3-.6-.7-.6-.4 0-.7.3-.7.7 0 .4.3.7.7.7m0-2.9c.3 0 .6-.3.7-.6.1.3.4.5.7.5.3-.1.5-.3.5-.6s-.3-.6-.6-.6-.5.2-.6.5c-.1-.4-.4-.6-.7-.6-.4 0-.7.3-.7.7 0 .4.3.7.7.7m0 1.5c.3 0 .6-.3.7-.6 0 .2.3.5.6.5s.6-.3.6-.6-.3-.6-.6-.6-.5.2-.6.5c-.1-.3-.3-.6-.7-.6-.4 0-.7.3-.7.7 0 .3.3.7.7.7m7.7 3.8c.1 0 .2-.1.2-.2s-.1-.2-.2-.2-.2.1-.2.2.1.2.2.2m-1.2 7.4c.1 0 .2-.1.2-.2s-.1-.2-.2-.2-.2.1-.2.2c-.1.1 0 .2.2.2m0 1.5c.1 0 .2-.1.2-.3 0-.1-.1-.2-.2-.2s-.2.1-.2.2c-.1.2 0 .3.2.3m-.1-4.4c.1 0 .2-.1.2-.3 0-.1-.1-.2-.2-.2s-.2.1-.2.2c0 .2.1.3.2.3m0 1.4c.1 0 .2-.1.2-.2s-.1-.3-.2-.3-.2.1-.2.3c0 .1.1.2.2.2m.1 4.4c.1 0 .2-.1.2-.2s-.1-.2-.2-.2c-.2-.1-.3.1-.3.2s.1.2.3.2m0 4.4c.1 0 .2-.1.2-.3 0-.1-.1-.2-.2-.2s-.2.1-.2.2c0 .2.1.3.2.3m0-2.9c.1 0 .2-.1.2-.2s-.1-.2-.2-.2-.2.1-.2.2c-.1.1 0 .2.2.2m0 1.5c.1 0 .2-.1.2-.2s-.1-.2-.2-.2-.2.1-.2.3c-.1 0 .1.1.2.1m0 2.9c.1 0 .2-.1.2-.3 0-.1-.1-.2-.2-.2s-.2.1-.2.2c0 .2.1.3.2.3m-.1-20.5c.1 0 .2-.1.2-.2s-.1-.2-.2-.2-.2.1-.2.2c-.1.1 0 .2.2.2m0-1.5c.1 0 .2-.1.2-.3 0-.1-.1-.2-.3-.2-.1 0-.2.1-.2.2 0 .2.1.3.3.3m-.1-2.9c.1 0 .2-.1.2-.2s-.1-.2-.2-.2c-.1-.1-.2 0-.2.1 0 .2.1.3.2.3m.1 1.4c.1 0 .2-.1.2-.2s-.1-.2-.2-.2c-.2-.1-.3 0-.3.2 0 .1.1.2.3.2m0 7.4c.1 0 .2-.1.2-.3 0-.1-.1-.2-.2-.2s-.2.1-.2.3c0 .1.1.2.2.2m0 1.4c.1 0 .2-.1.2-.2s-.1-.2-.2-.2c-.1-.1-.2 0-.2.2 0 .1.1.2.2.2m0 1.5c.1 0 .2-.1.2-.3 0-.1-.1-.2-.3-.2-.1 0-.2.1-.2.3.1.1.2.2.3.2m0-5.9c.1 0 .2-.1.2-.2s-.1-.2-.2-.2-.2.1-.2.3c-.1 0 0 .1.2.1m0 1.5c.1 0 .2-.1.2-.2s-.1-.2-.2-.2-.2.1-.2.3c-.1 0 .1.1.2.1m1.2-7.4c.1 0 .2-.1.2-.1 0-.1-.1-.2-.2-.2s-.2.1-.2.2c.1 0 .1.1.2.1m.1 7.3c.1 0 .2-.1.2-.1 0-.1-.1-.2-.2-.2s-.2.1-.2.2c0 0 .1.1.2.1m0 8.8c.1 0 .2-.1.2-.1 0-.1-.1-.1-.1-.1-.1 0-.2.1-.2.1s0 .1.1.1m0-11.7c.1 0 .2-.1.2-.2s-.1-.2-.2-.2-.2.1-.2.2.1.2.2.2m0 1.4c.1 0 .2-.1.2-.2s-.1-.2-.1-.2c-.1 0-.2.1-.2.1-.1.3 0 .3.1.3m0 8.8c.1 0 .1-.1.2-.1 0-.1-.1-.2-.2-.2s-.2.1-.2.2c.1.1.1.1.2.1m0-4.4c.1 0 .2-.1.2-.2s-.1-.2-.2-.2-.2.1-.2.2c0 .2.1.2.2.2m0 3c.1 0 .2-.1.2-.2s-.1-.2-.1-.2c-.1 0-.2.1-.2.1 0 .2 0 .3.1.3m0-1.5c.1 0 .2-.1.2-.1 0-.1-.1-.2-.2-.2s-.2.1-.2.2c0 0 .1.1.2.1M7.3 35c.1 0 .2-.1.2-.2s-.1-.2-.3-.2c-.1 0-.2.1-.2.2.1.1.2.2.3.2M8.4 1.2c.1 0 .2-.1.2-.2S8.5.8 8.4.8l-.2.2c0 .1.1.2.2.2m0 1.5c.1 0 .2-.1.2-.2s-.1-.2-.2-.2-.2.1-.2.2.1.2.2.2M7.3 33.6c.1 0 .2-.1.2-.2s-.1-.2-.2-.2-.2.1-.2.3c0 0 .1.1.2.1M4.7 25c.2 0 .4-.2.4-.4s-.2-.4-.4-.4-.4.2-.4.4.2.4.4.4M8.4 4.1c.1 0 .2-.1.2-.1 0-.1-.1-.2-.2-.2s-.1.1-.1.2 0 .1.1.1m0 4.4c.1 0 .2-.1.2-.2s-.1-.2-.2-.2-.2.1-.2.2c.1.2.2.2.2.2m0-2.9c.1 0 .2-.1.2-.2s-.1-.2-.1-.2c-.1 0-.2.1-.2.2s0 .2.1.2m-1.3.1c.1 0 .2-.1.2-.2s-.1-.2-.2-.2c-.1-.1-.2 0-.2.2 0 .1.1.2.2.2M8.4 10c.1 0 .2-.1.2-.2s-.1-.2-.2-.2-.2.1-.2.2l.2.2M7.3 36c-.1 0-.2.1-.2.2s.1.2.3.2c.1 0 .2-.1.2-.3 0 0-.1-.1-.3-.1M5.8 2.9c.2 0 .3-.2.3-.3 0-.2-.2-.3-.3-.3-.2 0-.3.2-.3.3 0 .1.2.3.3.3m.1 4.4c.2 0 .3-.2.3-.3 0-.2-.2-.3-.3-.3-.2 0-.3.2-.3.3-.1.1.1.3.3.3m-.1-3c.2 0 .4-.1.4-.3 0-.2-.2-.3-.3-.3-.2 0-.4.1-.4.3 0 .2.2.3.3.3m.1 1.5c.2 0 .3-.2.3-.3 0-.2-.2-.3-.3-.3-.2 0-.3.2-.3.3-.1.1.1.3.3.3m0 7.3c.2 0 .3-.2.3-.3 0-.2-.2-.3-.3-.3-.2 0-.3.2-.3.4 0 .1.1.2.3.2m0 1.5c.2 0 .3-.1.3-.3 0-.2-.2-.3-.3-.3-.2 0-.3.1-.3.3 0 .1.1.3.3.3m0-5.9c.2 0 .3-.2.3-.3 0-.2-.2-.3-.3-.3-.2 0-.3.2-.3.3-.1.2.1.3.3.3m0 3c.2 0 .3-.2.3-.3 0-.2-.2-.3-.3-.3-.2 0-.3.1-.3.3 0 .1.1.3.3.3m0-1.5c.2 0 .3-.2.3-.3 0-.2-.2-.3-.3-.3-.2 0-.3.2-.3.3-.1.1.1.3.3.3M4.7 29.4c.2 0 .4-.2.4-.4s-.2-.4-.5-.4c-.2 0-.4.2-.4.4.1.2.3.4.5.4m0-1.5c.2 0 .4-.2.4-.4S5 27 4.7 27c-.2 0-.4.2-.4.4s.2.5.4.5m0 2.9c.2 0 .4-.2.4-.4S5 30 4.7 30c-.2 0-.4.2-.4.4s.2.4.4.4m.1 3c.2 0 .4-.2.4-.4S5 33 4.8 33s-.4.2-.4.4c-.1.2.1.4.4.4m-.1-1.5c.2 0 .4-.2.4-.4s-.2-.4-.4-.4-.4.2-.4.4.2.4.4.4m.1 3.5c-.2 0-.4.2-.4.5 0 .2.2.4.4.4s.4-.2.4-.4c0-.3-.2-.5-.4-.5m0-.6c.2 0 .4-.2.4-.4s-.2-.4-.4-.4-.4.2-.4.4c-.1.2.1.4.4.4m1-33.8c.2 0 .3-.2.3-.3 0-.2-.2-.3-.3-.3-.2 0-.3.2-.3.3 0 .2.1.3.3.3M6 21.9c.2 0 .3-.2.3-.3 0-.2-.2-.3-.3-.3-.2 0-.3.2-.3.4-.1.1.1.2.3.2m0 10.3c.2 0 .3-.2.3-.4s-.2-.3-.3-.3c-.2 0-.3.2-.3.3 0 .2.1.4.3.4m0 1.5c.2 0 .3-.2.3-.3.1-.3-.1-.4-.3-.4-.2 0-.3.2-.3.3 0 .2.2.4.3.4m0-3c.2 0 .3-.1.3-.3 0-.2-.2-.3-.3-.3-.2 0-.3.2-.3.3 0 .2.1.3.3.3M7.1 1.3c.1 0 .2-.1.2-.2S7.2.9 7.1.9c-.1-.1-.2 0-.2.2 0 .1.1.2.2.2m0 1.5c.1 0 .2-.1.2-.2s-.1-.2-.2-.2c-.1-.1-.2 0-.2.1 0 .2.1.3.2.3m-1 33.1c-.2 0-.3.2-.3.3 0 .2.2.3.3.3.2 0 .3-.2.3-.3 0-.1-.2-.3-.3-.3m1-31.7c.1 0 .2-.1.2-.2s-.1-.2-.2-.2c-.1-.1-.2.1-.2.2s.1.2.2.2M6 35.1c.2 0 .3-.2.3-.3 0-.2-.2-.3-.3-.3-.2 0-.3.2-.3.3 0 .2.2.3.3.3m-.1-17.6c.2 0 .3-.2.3-.3 0-.2-.2-.3-.3-.3-.2 0-.3.2-.3.3 0 .2.1.3.3.3m.1 3c.2 0 .3-.2.3-.3 0-.2-.2-.3-.3-.3-.2 0-.3.2-.3.3-.1.1.1.3.3.3M5.9 19c.2 0 .3-.2.3-.3 0-.2-.2-.3-.3-.3-.2 0-.3.2-.3.3 0 .1.2.3.3.3m0-2.9c.2 0 .3-.2.3-.3 0-.2-.2-.3-.3-.3-.2 0-.3.2-.3.4 0 0 .2.2.3.2M4.7 26.4c.2 0 .4-.2.4-.4s-.2-.4-.4-.4-.4.2-.4.4.2.4.4.4M6 29.3c.2 0 .3-.2.3-.3 0-.2-.2-.3-.3-.3-.2 0-.3.2-.3.4 0 0 .1.2.3.2m0-1.5c.2 0 .3-.2.3-.3 0-.2-.2-.3-.3-.3-.2 0-.3.2-.3.3 0 .2.1.3.3.3m0-4.4c.2 0 .3-.2.3-.3 0-.2-.2-.3-.3-.3-.2 0-.3.2-.3.3-.1.2.1.3.3.3m0 2.9c.2 0 .3-.2.3-.3 0-.2-.2-.3-.3-.3-.2 0-.3.2-.3.3 0 .2.1.3.3.3m0-1.4c.2 0 .3-.2.3-.3 0-.2-.2-.3-.3-.3-.2 0-.3.2-.3.3-.1.1.1.3.3.3m-2.6-7.2c.3 0 .5-.2.5-.5s-.2-.5-.5-.5-.5.2-.5.5c-.1.3.2.5.5.5m0 2.9c.3 0 .5-.2.5-.5s-.2-.5-.5-.5-.5.2-.5.5c-.1.3.2.5.5.5" clip-rule="evenodd"/></svg>