<svg width="176" height="51" xmlns="http://www.w3.org/2000/svg"><title>cazoo-black</title><path d="M18.541 7.785c.229 0 .46.01.688.028 1.323.113 2.26.558 3.344 1.24.264.166.52.25.764.25.36 0 .685-.177.963-.526l2.645-3.827a1.5 1.5 0 0 0-.527-2.168C24.022 1.476 21.268.787 18.45.787 9.494.787 2.48 7.54 2.48 16.162c0 .019 0 .035.002.053a1.113 1.113 0 0 0-.002.063c0 8.622 7.015 15.376 15.971 15.376 2.817 0 5.572-.69 7.969-1.995a1.51 1.51 0 0 0 .745-.972c.099-.411.02-.846-.219-1.194l-2.561-3.748a1.057 1.057 0 0 0-.886-.464c-.208 0-.415.059-.596.168a8.404 8.404 0 0 1-3.673 1.179c-.228.019-.46.028-.687.028-4.56 0-8.435-3.863-8.46-8.437.025-4.57 3.9-8.434 8.46-8.434ZM157.91 23.987c-4.282 0-7.766-3.484-7.766-7.767 0-4.282 3.484-7.766 7.766-7.766 4.283 0 7.767 3.484 7.767 7.766 0 4.283-3.484 7.767-7.767 7.767m0-23.161c-8.502 0-15.394 6.892-15.394 15.394 0 8.502 6.892 15.395 15.394 15.395 8.502 0 15.395-6.893 15.395-15.395 0-8.502-6.893-15.394-15.395-15.394m-37.15 7.628c4.282 0 7.766 3.484 7.766 7.767 0 4.282-3.484 7.766-7.766 7.766-4.283 0-7.767-3.484-7.767-7.766 0-4.283 3.484-7.767 7.767-7.767m0-7.628c-8.502 0-15.395 6.893-15.395 15.395 0 8.502 6.893 15.394 15.395 15.394 8.502 0 15.394-6.892 15.394-15.394 0-8.502-6.892-15.395-15.394-15.395M97.752.708H76.287a2.013 2.013 0 0 0-2.013 2.014v3.383c0 1.112.9 2.014 2.013 2.014h12.438L74.253 24.705l.025.021a2.006 2.006 0 0 0-.614 1.444v3.383c0 1.112.902 2.014 2.014 2.014h22.074a2.014 2.014 0 0 0 2.014-2.014V26.17a2.014 2.014 0 0 0-2.014-2.014H84.658L99.14 7.56c.385-.366.627-.88.627-1.454V2.722A2.014 2.014 0 0 0 97.752.708m-40.87 16.61H42.87c-.357 0-.041-.714-.039-.718.109-.327 2.717-6.725 2.827-7.056.146-.42.334-1.229 1.01-1.233.36-.002 6.057-.002 6.417 0 .677.004.865.813 1.01 1.233.11.33 2.72 6.73 2.828 7.056.002.004.318.719-.04.719Zm12.043-4.724c-.079-.358-.357-.545-.873-.576l-2.81-.405c-.274 0-.993.054-1.202.935l-.138.691-.435-.864-.926-2.094-1.864-3.992c-.41-.806-1.621-5.442-6.873-5.442h-7.855c-5.253 0-6.465 4.636-6.875 5.442L37.21 10.28l-.925 2.094-.436.864-.138-.691c-.208-.881-.927-.935-1.202-.935l-2.81.405c-.515.03-.794.218-.872.576l-.557 1.604c-.08.56.212.872.741.903l3.395.416c-.374.34-.86 1.065-.86 2.602 0 3.394-.005 7.274-.008 9.212h.012v2.26c0 1.107.896 2.003 2.002 2.003h3.583a2.002 2.002 0 0 0 2.002-2.002v-2.26h.003l-.003-2.09c0-.223.18-.402.402-.402l7.866.004H49.574l8.64-.004c.22 0 .4.18.4.402l-.003 2.09h.003v2.26c0 1.106.897 2.002 2.002 2.002H64.2a2.002 2.002 0 0 0 2.001-2.002v-2.26h.013c-.003-1.94-.008-5.819-.008-9.213 0-1.537-.487-2.262-.86-2.602l3.394-.416c.53-.031.821-.342.742-.903l-.557-1.604ZM.132 41.58H5.16v1.146H1.377v2.478h3.258v1.135H1.377v2.635h3.904v1.148H.132V41.58Zm6.676 2.172h1.208v.83h.098c.268-.537.902-.989 1.83-.989 1.44 0 2.33 1.074 2.33 2.44v4.088h-1.208v-3.88c0-.903-.658-1.513-1.464-1.513-.89 0-1.586.695-1.586 1.623v3.77H6.808v-6.37Zm6.833 3.184c0-1.879 1.367-3.343 3.27-3.343 1.453 0 2.685.83 3.039 2.319l-1.16.28c-.17-.89-.914-1.476-1.842-1.476-1.232 0-2.062.975-2.062 2.22 0 1.282.867 2.209 2.075 2.209.926 0 1.67-.562 1.842-1.452l1.172.269c-.355 1.489-1.6 2.318-3.052 2.318-1.951 0-3.282-1.477-3.282-3.344m7.762.904v-4.088h1.207v3.88c0 .903.66 1.501 1.465 1.501.89 0 1.586-.684 1.586-1.611v-3.77h1.208v6.369h-1.208v-.83h-.098c-.268.537-.902.99-1.83.99-1.44 0-2.33-1.075-2.33-2.441m11.873-1.502c-.062-1.086-.879-1.683-1.843-1.683-.976 0-1.793.707-1.879 1.683h3.722Zm-4.98.61c0-2.012 1.43-3.355 3.137-3.355 1.94 0 3.075 1.378 3.075 3.282v.379h-4.966c.012 1.244.769 1.976 1.952 1.976.793 0 1.538-.439 1.757-1.232l1.136.28c-.391 1.258-1.502 2.002-2.893 2.002-1.94 0-3.197-1.379-3.197-3.331Zm7.702-3.196h1.208v.83h.098c.268-.537.902-.989 1.83-.989 1.44 0 2.33 1.074 2.33 2.44v4.088h-1.208v-3.88c0-.903-.658-1.513-1.464-1.513-.89 0-1.586.695-1.586 1.623v3.77h-1.208v-6.37Zm7.895 4.502v-3.453h-1.16v-1.05h1.233v-1.818H45.1v1.819h1.879V44.8H45.1v3.442c0 .572.233.817.794.817h1.013v1.06h-1.025c-1.196 0-1.989-.548-1.989-1.866m4.637-4.502h1.196v1h.086c.219-.537.841-1.159 1.708-1.159h.452v1.208h-.61c-1.099 0-1.624.842-1.624 2.05v3.27H48.53v-6.37Zm9.31 3.197c0-1.416-.902-2.233-1.988-2.233-1.135 0-1.977.926-1.977 2.233 0 1.342.879 2.22 1.99 2.22 1.207 0 1.976-1.012 1.976-2.22m-5.186-.012c0-1.916 1.232-3.344 2.99-3.344 1.232 0 1.818.732 2.062 1.074h.097v-.915h1.208v4.978c0 .195.122.293.317.293h.294v1.098h-.867c-.525 0-.927-.33-.927-.878h-.085c-.22.304-.758 1.037-2.026 1.037-1.77 0-3.063-1.404-3.063-3.343m7.908 2.562c0-.44.366-.793.805-.793.44 0 .793.354.793.793a.79.79 0 0 1-.793.781c-.439 0-.805-.354-.805-.78m5.003-3.65c0-2.501 1.842-4.429 4.356-4.429 1.927 0 3.453 1.147 4.015 2.88h-1.343c-.427-1.038-1.452-1.697-2.672-1.697-1.781 0-3.063 1.391-3.063 3.246 0 1.88 1.282 3.258 3.063 3.258 1.208 0 2.257-.647 2.672-1.708h1.343c-.55 1.77-2.1 2.892-4.015 2.892-2.526 0-4.356-1.916-4.356-4.442m14.838 1.086c0-1.269-.878-2.22-2.123-2.22-1.232 0-2.099.963-2.099 2.22 0 1.294.879 2.209 2.099 2.209 1.245 0 2.123-.927 2.123-2.209m-5.454 0c0-1.916 1.415-3.343 3.343-3.343 1.94 0 3.343 1.44 3.343 3.343 0 1.904-1.414 3.344-3.355 3.344-1.928 0-3.33-1.428-3.33-3.344m8.175-3.184h1.208v.83h.098c.268-.537.902-.989 1.83-.989 1.44 0 2.33 1.074 2.33 2.44v4.088h-1.207v-3.88c0-.903-.66-1.513-1.465-1.513-.89 0-1.586.695-1.586 1.623v3.77h-1.208v-6.37Zm12.02 3.197c0-1.416-.903-2.233-1.99-2.233-1.135 0-1.976.926-1.976 2.233 0 1.342.878 2.22 1.989 2.22 1.208 0 1.976-1.012 1.976-2.22m-5.185-.012c0-1.916 1.232-3.344 2.99-3.344 1.231 0 1.817.732 2.061 1.074h.098V40.97h1.208v9.151h-1.184v-.878h-.085c-.22.28-.781 1.037-2.026 1.037-1.757 0-3.062-1.404-3.062-3.343m8.115.903v-4.088h1.207v3.88c0 .903.66 1.501 1.464 1.501.892 0 1.588-.684 1.588-1.611v-3.77h1.208v6.369h-1.208v-.83h-.099c-.268.537-.902.99-1.83.99-1.44 0-2.33-1.075-2.33-2.441m6.894-.904c0-1.879 1.367-3.343 3.27-3.343 1.453 0 2.685.83 3.039 2.319l-1.16.28c-.17-.89-.914-1.476-1.842-1.476-1.232 0-2.062.975-2.062 2.22 0 1.282.867 2.209 2.075 2.209.927 0 1.67-.562 1.842-1.452l1.172.269c-.355 1.489-1.6 2.318-3.05 2.318-1.953 0-3.284-1.477-3.284-3.344m12.35-.598c-.062-1.086-.879-1.683-1.843-1.683-.977 0-1.794.707-1.879 1.683h3.722Zm-4.98.61c0-2.012 1.429-3.355 3.137-3.355 1.94 0 3.075 1.378 3.075 3.282v.379h-4.967c.013 1.244.77 1.976 1.953 1.976.793 0 1.537-.439 1.757-1.232l1.135.28c-.39 1.258-1.501 2.002-2.892 2.002-1.94 0-3.198-1.379-3.198-3.331Zm6.835 2.551c0-.44.366-.793.805-.793.44 0 .794.354.794.793a.79.79 0 0 1-.794.781c-.439 0-.805-.354-.805-.78m9.225-.502c1.891 0 3.026-1.158 3.026-3.148 0-1.915-1.11-3.135-3.026-3.135h-1.16v6.283h1.16Zm-3.185.049h.78v-6.393h-.78V41.58h3.185c2.733 0 4.307 1.78 4.307 4.27 0 2.648-1.574 4.271-4.307 4.271h-3.185v-1.074Zm9.604-7.174c0-.44.342-.794.806-.794.475 0 .817.354.817.794a.795.795 0 0 1-.817.817.793.793 0 0 1-.806-.817Zm.195 2.928h-1.159v-1.05h2.368v6.37h-1.209V44.8Zm2.941 3.526 1.122-.256c.11.757.635 1.135 1.453 1.135.817 0 1.256-.354 1.256-.89 0-1.538-3.623-.318-3.623-2.868 0-1.086.939-1.855 2.33-1.855 1.159 0 2.172.623 2.367 1.77l-1.061.304c-.11-.646-.623-1-1.342-1-.696 0-1.135.33-1.135.793 0 1.391 3.685.158 3.685 2.757 0 1.233-1 2.063-2.526 2.063-1.404 0-2.368-.72-2.526-1.953m7.152-3.526h-1.16v-1.05h1.16v-.914c0-1.319.792-1.868 1.988-1.868h.964v1.05h-.951c-.562 0-.794.257-.794.83v.903h1.794v1.05h-1.794v5.319h-1.207V44.8Zm4.429-1.05h1.196v1.001h.085c.22-.537.842-1.159 1.709-1.159h.45v1.208h-.61c-1.097 0-1.622.842-1.622 2.05v3.27h-1.208v-6.37Zm4.771 4.089v-4.088h1.208v3.88c0 .903.659 1.501 1.464 1.501.891 0 1.587-.684 1.587-1.611v-3.77h1.208v6.369h-1.208v-.83h-.098c-.268.537-.903.99-1.83.99-1.44 0-2.33-1.075-2.33-2.441m7.956.414v-3.453h-1.16v-1.05h1.232v-1.818h1.136v1.819h1.879V44.8h-1.88v3.442c0 .572.233.817.794.817h1.012v1.06h-1.024c-1.196 0-1.99-.548-1.99-1.866m9.373-1.305c0-1.416-.903-2.233-1.99-2.233-1.134 0-1.976.926-1.976 2.233 0 1.342.878 2.22 1.99 2.22 1.207 0 1.976-1.012 1.976-2.22m-5.186-.012c0-1.916 1.232-3.344 2.99-3.344 1.232 0 1.817.732 2.062 1.074h.097v-.915h1.208v4.978c0 .195.122.293.318.293h.292v1.098h-.866c-.524 0-.927-.33-.927-.878h-.086c-.22.304-.756 1.037-2.026 1.037-1.769 0-3.062-1.404-3.062-3.343m7.907 2.562c0-.44.367-.793.806-.793.44 0 .793.354.793.793a.79.79 0 0 1-.793.781c-.44 0-.806-.354-.806-.78" fill="#161616" fill-rule="evenodd"/></svg>