<svg width="172" height="32" xmlns="http://www.w3.org/2000/svg"><title>cazoo-white-simple</title><path d="M16.953 7.785c.228 0 .46.01.688.028 1.323.113 2.26.558 3.344 1.24.263.166.52.25.763.25.36 0 .685-.177.963-.526l2.645-3.827a1.5 1.5 0 0 0-.527-2.168C22.434 1.476 19.68.787 16.862.787 7.906.787.89 7.54.89 16.162c0 .019 0 .035.003.053a1.113 1.113 0 0 0-.003.063c0 8.622 7.016 15.376 15.972 15.376 2.816 0 5.572-.69 7.968-1.995a1.51 1.51 0 0 0 .745-.972c.1-.411.02-.846-.218-1.194l-2.562-3.748a1.057 1.057 0 0 0-.885-.464c-.209 0-.415.059-.597.168a8.404 8.404 0 0 1-3.672 1.179c-.229.019-.46.028-.688.028-4.56 0-8.435-3.863-8.46-8.437.025-4.57 3.9-8.434 8.46-8.434ZM156.32 23.987c-4.283 0-7.767-3.484-7.767-7.767 0-4.282 3.484-7.766 7.767-7.766 4.282 0 7.766 3.484 7.766 7.766 0 4.283-3.484 7.767-7.766 7.767m0-23.161c-8.503 0-15.395 6.892-15.395 15.394 0 8.502 6.892 15.395 15.395 15.395 8.502 0 15.394-6.893 15.394-15.395 0-8.502-6.892-15.394-15.394-15.394M119.17 8.454c4.283 0 7.766 3.484 7.766 7.767 0 4.282-3.483 7.766-7.766 7.766-4.283 0-7.766-3.484-7.766-7.766 0-4.283 3.483-7.767 7.766-7.767m0-7.628c-8.502 0-15.395 6.893-15.395 15.395 0 8.502 6.893 15.394 15.395 15.394 8.502 0 15.395-6.892 15.395-15.394 0-8.502-6.893-15.395-15.395-15.395M96.164.708H74.698a2.013 2.013 0 0 0-2.013 2.014v3.383c0 1.112.901 2.014 2.013 2.014h12.439L72.664 24.705l.025.021a2.006 2.006 0 0 0-.614 1.444v3.383c0 1.112.902 2.014 2.014 2.014h22.075a2.014 2.014 0 0 0 2.014-2.014V26.17a2.014 2.014 0 0 0-2.014-2.014H83.069L97.551 7.56c.384-.366.627-.88.627-1.454V2.722A2.014 2.014 0 0 0 96.164.708m-40.87 16.61H41.28c-.358 0-.042-.714-.04-.718.11-.327 2.718-6.725 2.828-7.056.145-.42.333-1.229 1.01-1.233.36-.002 6.056-.002 6.416 0 .677.004.865.813 1.011 1.233.11.33 2.719 6.73 2.827 7.056.002.004.318.719-.04.719Zm12.042-4.724c-.078-.358-.357-.545-.873-.576l-2.81-.405c-.274 0-.993.054-1.201.935l-.138.691-.436-.864-.926-2.094-1.864-3.992C58.68 5.483 57.467.847 52.215.847H44.36c-5.253 0-6.465 4.636-6.874 5.442l-1.864 3.992-.926 2.094-.436.864-.138-.691c-.208-.881-.927-.935-1.201-.935l-2.81.405c-.516.03-.795.218-.873.576l-.557 1.604c-.08.56.212.872.742.903l3.394.416c-.373.34-.86 1.065-.86 2.602 0 3.394-.005 7.274-.007 9.212h.012v2.26c0 1.107.896 2.003 2.002 2.003h3.582a2.002 2.002 0 0 0 2.002-2.002v-2.26h.004l-.004-2.09c0-.223.18-.402.403-.402l7.865.004H47.985l8.64-.004c.221 0 .4.18.4.402l-.002 2.09h.003v2.26c0 1.106.896 2.002 2.002 2.002h3.583a2.002 2.002 0 0 0 2.002-2.002v-2.26h.012c-.003-1.94-.008-5.819-.008-9.213 0-1.537-.486-2.262-.86-2.602l3.395-.416c.53-.031.82-.342.74-.903l-.556-1.604Z" fill="#FFF" fill-rule="evenodd"/></svg>