<svg xmlns="http://www.w3.org/2000/svg" width="88" height="27"><path fill="#161616" fill-rule="evenodd" d="M21.8 22.4c-2.6.6-4.2 1-7 1.6-11.6 2.8-11.3-3.2-10.7-6 .8-4 2.8-7.5 6.7-11.8C12.9 4 14.9 2 17.5 1.3c2-.5 1.8 1 1.6 1.2-.3 0-2 .2-2.1 1.9-.1 1.2 1.8 1.7 2.9-1.1.9-2.2-.7-3.2-1.6-3.3C10.6-.6-3.5 14.2.8 23.2c1.2 2 4 3.4 7 3.1 1.6-.2 3.4-.5 6.3-1.2 1.7-.4 10.7-3.3 13.6 1.7 0 0 1-1.8 3.4-1.8 2-.2 4.8.6 7 2-.6-.8-5.9-7.1-16.3-4.6zM19.6 8.8c-.1 1.4-.8 2.5-.9 2.7 0 .1-.1.1-.1 0-.9-.1-1.8-.7-1.9-1.3-.2-1.1.8-2 1.2-2.3 1.5-.7 1.7.5 1.7.9zm-1.5 3.9c-.1.1-1.6 2.8-3.3 4.1-.9.7-2.6.9-1.8-1.7.5-1.5 1.9-3.5 2.6-4.4h.1c.6 1.1 1.7 1.6 2.5 1.8 0-.1-.1 0-.1.2zm15.1-1.3c1.1-1.5 1.9-2.3 2.5-2.9.7-.7 1.7-.9 1.8-.2-.5.8-4.5 8-6 8.7-1 .6-1.2 0-1.2-.3 0-1.4 2.5-4.8 2.9-5.3zM19.8 6.8c-1.7-1-5 .9-7.7 4.3-2.4 3-3.6 6.6-2.4 8.1 2.8 3 8.8-5.2 9.4-6.7.4-.1.9-.2 1.4-.3 0 0-3.3 5-1 7 2.8 2.4 7.4-2.7 7.6-2.8 0 .2-1.1 3 .8 3.4 2 .4 4-2 4-2-.3 1 .2 3.1 3 1.4 2.3-1.5 4.2-3.9 5.7-6h-1s-2.4 3.2-3.9 3.9c0 0-.3.1-.4 0-.2-.2-.2-.4 0-.7l5.9-9.6h-2.8l-.3.5-.1-.1c-1.7-2.2-5.6 1.2-8.6 5.2-1.1 1.5-2.6 3.3-4.1 4.5 0 0-2.2 1.9-3.2.5-.3-.6-.2-1.4 0-2 1.1-2.9 3-5.6 5.2-7.2.6-.4 1.3-.6 1.6-.4.3.2.4.6.2.9-.5-.1-1.8.4-2 1.8-.1.4.3.8.9.8.8-.1 2.1-1.8 2-3.2 0-.6-.4-1.1-.8-1.4-.7-.4-1.8-.3-2.6 0-1 .3-2.5 1.5-3.4 2.4-1.1 1.2-3 2.4-3.6 2.3.4-.5 1.9-3.5.2-4.6zm36.8 3.1c-.6.1-1.5-.2-.7-2 1.1-2.4 3.4-4.7 5.7-5.8.2 3.2-2.7 7.2-5 7.8zm-2.2 4c-.5-.7-1.1-.9-1.8-.8-1.6.1-4 1.9-5.3 4.3-.6 1.2-.9 2.3-1.1 3.9.7-.7 2.1-1.9 3.7-2.6 0 0 .2-1.6 1.3-3 .4-.6 1.4-1.6 2.2-1.3.8.3.5 2.4-.6 4.4-.8 1.5-2 3-3.3 4.1-1.1.9-2.7 1.9-4.2 1.1-.9-.5-1.4-1.5-1.3-2.9.4-3.8 2.6-7.6 4.9-10.8 1.5-2.1 5.7-7 9.8-8.8.8-.4 1.6-.5 2.3-.2 0 0-3.7 2-5.6 5.6-1.5 2.9-.2 4.1 1 3.8 4.5-1.1 6.4-7.7 6-9 1.1-.5 3.1.4 3.8.6 1.3.5 4.8 2.8 6 3.4l2.1-2.1-.8-.5c-1.4-.7-2.1-1.1-4-2.1C65.8-1 62 .8 62 .8c-.8-.8-2-.9-3.6-.6-3 .5-12.8 5.6-17.6 18.1-.8 2.1-1 5.1.9 6.9 1.6 1.5 3.6 1.2 5.1.7 3.2-1.5 5.9-4.4 7.4-8.2.4-.9.8-2.9.2-3.8zm28.9 6.8v-.4h.2c.1 0 .2.1.2.2s-.1.2-.2.2h-.2zm.7-.2c0-.2-.2-.4-.4-.4h-.4v1.3h.2v-.5h.2l.3.5h.1l-.3-.5c.2-.1.3-.2.3-.4zm-11.4 3.2c-.1 0-.9.3-.8-.6.1-1.5 2.9-6.2 5.8-8.4.4-.2 1.3-.7 1.4.1 0 .2-1.2 2-1.8 2.9-1.2 1.9-3.4 5.7-4.6 6zM62 18.4c-.1 0-1.6-.5-1.8-1.6-.2-1.2.8-2.1 1.3-2.3 1-.5 1.6-.2 1.6.7.1 1.1-.6 2.5-1.1 3.2zm-4.2 5.2c-1.3.6-1.5-.4-1.5-.8 0-1.3 1.7-4.1 2.9-5.6.5 1.1 1.6 1.7 2.3 2-.5 1.2-2.3 3.7-3.7 4.4zm19.4.2c-.4.1-.7-.1-.5-.5.6-1.2 5.9-10 5.9-10h-2.8c-.1.2-.4.7-.4.7-.2-.3-.2-.5-.7-.7-.6-.4-1.7-.2-2.4.2-3 1.7-5.2 4.9-7 7.5 0 0-1.9 2.9-2.9 3.1-.6.1-.7-.6-.7-1.2.1-1.1 1-3.3 1.7-4.7 1.6-1.1 3.2-2.3 4.7-3.6 3.3-3 6.1-6.3 6.5-7 0 0-.4.1-1 .1-2.5 3.3-7.8 8.1-9.3 8.8.7-1.6 5.2-9 9-12.6 0 0 2.5-2.4 3.2-2.4.1 0 .3.1.3.4 0 .8-1 2.3-1 2.3s.6-.1 1-.2c.7-1 1.2-1.9 1-3-.1-.3-.3-.6-.7-.7-1.3-.3-3.4 1.3-3.4 1.3-5.2 3.8-9.5 9.2-13.3 16.7-.3.2-1.3.4-1.5.3.4-.7.8-1.7 1.1-2.8 0-.3.1-.6.1-.9 0-.6-.2-1.4-.8-1.7-.7-.3-1.6-.2-2.2.1-2.7 1.1-4.7 3.7-6.2 5.8-.8 1.4-1.6 2.8-1.8 4.5-.2 1.3.2 2.2 1 2.6.8.4 1.9 0 2.3-.2 2.8-1.4 4.7-4.1 6.2-6.6.1 0 1.1-.1 1.5-.2 0 .1-.4 1-.4 1-1 2.6-1.4 4.4-.5 5.5 1.3 1.5 3.4-.1 5.2-2.1-.4 2.5 1 2.8 2 2.7.9-.2 2.5-1.5 3.1-2.1-.2 1.1 0 2.4 1.7 2.1 2.8-.6 6.3-5.6 7-6.7h-.9c-1.1 1.4-2.9 3.7-4.1 4.2zm-31.4-17h-2.6l-1.5 2.4h2.6c.1 0 1.5-2.4 1.5-2.4zm37.7 14.9c-.5 0-1-.4-1-1 0-.5.5-1 1-1s.9.4 1 1c0 .6-.4 1-1 1zm0-2.1c-.7 0-1.2.5-1.2 1.2 0 .6.5 1.2 1.2 1.2s1.2-.5 1.2-1.2-.5-1.2-1.2-1.2zm.4-16.5c-2 1.1-4.1 1.8-6.6 1.5-.7.7-1.4 1.5-2 2.3 3.5.8 7.3-1.1 9.4-2.8C87 2.1 88 0 88 0s-1.7 1.8-4.1 3.1z" clip-rule="evenodd"/></svg>