<svg width="135" height="35" xmlns="http://www.w3.org/2000/svg"><title>herrero-brigantina</title><path d="M39.943 5.334h5.087V.721h1.78v11.79h-1.78V7.006h-5.087v5.505h-1.78V.721h1.78v4.613Zm16.196-2.94h-4.726v2.832h4.589v1.672h-4.589v3.941h4.726v1.672h-6.506V.721h6.506v1.673Zm6.332 5.093 3.65 5.024h-2.177l-3.366-4.826h-.32v4.826h-1.78V.721h2.083c1.558 0 2.683.293 3.375.878.764.651 1.145 1.512 1.145 2.582 0 .834-.238 1.552-.718 2.153-.479.6-1.109.985-1.894 1.153h.002Zm-2.216-1.351h.565c1.685 0 2.527-.645 2.527-1.932 0-1.208-.82-1.81-2.458-1.81h-.634v3.742Zm11.63 1.351 3.65 5.024H73.36l-3.366-4.826h-.321v4.826h-1.78V.721h2.084c1.558 0 2.683.293 3.375.878.764.651 1.145 1.512 1.145 2.582 0 .834-.238 1.552-.718 2.153-.48.6-1.109.985-1.894 1.153h.001ZM69.67 6.136h.565c1.685 0 2.527-.645 2.527-1.932 0-1.208-.82-1.81-2.459-1.81h-.633v3.742Zm14.143-3.742h-4.726v2.832h4.589v1.672h-4.59v3.941h4.727v1.672h-6.506V.721h6.506v1.673Zm6.331 5.093 3.65 5.024h-2.176l-3.367-4.826h-.32v4.826h-1.78V.721h2.084c1.558 0 2.683.293 3.375.878.764.651 1.145 1.512 1.145 2.582 0 .834-.239 1.552-.718 2.153-.48.6-1.11.985-1.894 1.153h.001ZM87.93 6.136h.565c1.685 0 2.527-.645 2.527-1.932 0-1.208-.82-1.81-2.459-1.81h-.633v3.742Zm6.783.427c0-1.659.608-3.086 1.826-4.277C97.75 1.096 99.206.5 100.906.5c1.7 0 3.12.6 4.322 1.803 1.207 1.2 1.81 2.645 1.81 4.33s-.606 3.133-1.818 4.314c-1.218 1.186-2.687 1.78-4.406 1.78-1.523 0-2.89-.527-4.101-1.58-1.334-1.167-2.001-2.693-2.001-4.583v-.001Zm1.794.023c0 1.304.439 2.375 1.314 3.214.87.841 1.877 1.26 3.017 1.26 1.237 0 2.28-.427 3.131-1.283.85-.865 1.276-1.918 1.276-3.16 0-1.242-.42-2.312-1.26-3.16-.834-.856-1.868-1.283-3.1-1.283s-2.262.427-3.108 1.282c-.846.846-1.268 1.89-1.268 3.131l-.002-.001ZM38.22 25.796v-11.79h1.772c.788 0 1.418.061 1.886.184a2.85 2.85 0 0 1 1.2.618c.33.301.593.674.786 1.122.198.453.298.912.298 1.375 0 .845-.324 1.56-.97 2.146a2.85 2.85 0 0 1 1.482 1.122c.366.53.55 1.145.55 1.849 0 .92-.326 1.7-.977 2.336a3.219 3.219 0 0 1-1.322.818c-.535.147-1.204.22-2.009.22H38.22ZM40 19.07h.558c.66 0 1.147-.146 1.454-.439.308-.293.462-.724.462-1.294 0-.57-.157-.976-.473-1.264-.316-.288-.774-.432-1.374-.432h-.627v3.429Zm0 5.055h1.1c.804 0 1.395-.157 1.771-.473.398-.34.596-.774.596-1.299 0-.525-.192-.936-.573-1.283-.371-.34-1.035-.512-1.993-.512H40v3.567Zm11.462-3.352 3.65 5.024h-2.176l-3.367-4.826h-.32v4.826h-1.78v-11.79h2.083c1.558 0 2.683.292 3.375.878.764.651 1.146 1.512 1.146 2.581 0 .835-.24 1.553-.719 2.153-.479.6-1.109.985-1.894 1.154h.002Zm-2.216-1.352h.565c1.685 0 2.527-.644 2.527-1.932 0-1.207-.82-1.809-2.458-1.809h-.634v3.741Zm9.417-5.415v11.79h-1.78v-11.79h1.78Zm8.896 5.651h4.872v.39c0 .884-.105 1.67-.312 2.352a5 5 0 0 1-1.03 1.772c-1.095 1.231-2.488 1.848-4.178 1.848s-3.062-.595-4.238-1.786c-1.177-1.196-1.764-2.632-1.764-4.308 0-1.675.599-3.162 1.795-4.353 1.196-1.196 2.652-1.795 4.368-1.795a5.99 5.99 0 0 1 2.581.565c.764.376 1.515.988 2.253 1.832l-1.268 1.214c-.967-1.288-2.146-1.932-3.535-1.932-1.248 0-2.294.43-3.14 1.29-.845.846-1.267 1.905-1.267 3.178 0 1.272.47 2.395 1.413 3.245.88.789 1.836 1.185 2.863 1.185.875 0 1.662-.295 2.359-.885.697-.596 1.086-1.309 1.168-2.138h-2.94v-1.674Zm13.502 3.277h-5.047l-1.314 2.863h-1.917l5.834-12.532 5.627 12.532h-1.946l-1.237-2.863Zm-.725-1.672-1.749-4.01-1.832 4.01h3.581Zm5.382 4.535V13.205l8.599 8.996v-8.195h1.78v12.509l-8.599-8.973v8.255h-1.78Zm16.456-10.119v10.119h-1.78V15.678h-2.71v-1.672h7.193v1.672h-2.703Zm6.071-1.672v11.79h-1.78v-11.79h1.78Zm2.834 11.79V13.206l8.598 8.996v-8.195h1.78v12.509l-8.598-8.973v8.255h-1.78Zm20.22-2.862h-5.047l-1.313 2.863h-1.918l5.834-12.532 5.628 12.532h-1.947l-1.237-2.863Zm-.724-1.672-1.75-4.01-1.832 4.01h3.582Zm-91.169 7.203v5.39h-1.184v-5.39h1.184Zm1.918 1.487v.543h.022c.136-.226.313-.39.529-.494a1.53 1.53 0 0 1 .664-.155c.286 0 .522.039.705.118.183.078.329.186.434.323.106.14.18.308.222.506.043.2.064.419.064.66v2.4h-1.072V31.65c0-.323-.05-.563-.15-.722-.102-.159-.28-.237-.537-.237-.29 0-.504.087-.634.26-.131.173-.197.46-.197.857v2.047h-1.071V29.95h1.019l.002.002Zm4.328 2.933c.048.084.11.15.185.205a.822.822 0 0 0 .26.118c.098.024.2.037.306.037.075 0 .156-.008.237-.026a.806.806 0 0 0 .226-.083.519.519 0 0 0 .17-.15.392.392 0 0 0 .069-.238c0-.16-.106-.281-.32-.363a6.642 6.642 0 0 0-.896-.242 5.202 5.202 0 0 1-.456-.125 1.555 1.555 0 0 1-.396-.188.924.924 0 0 1-.28-.294.835.835 0 0 1-.106-.434c0-.252.05-.458.147-.618.098-.16.228-.288.39-.381a1.69 1.69 0 0 1 .543-.197c.201-.037.407-.057.618-.057.211 0 .416.02.615.06.198.041.377.108.532.205.155.095.286.223.39.381.102.159.165.358.184.6H47.05c-.015-.206-.093-.346-.234-.418a1.064 1.064 0 0 0-.499-.11c-.06 0-.126.003-.196.012a.711.711 0 0 0-.193.049.404.404 0 0 0-.147.11.287.287 0 0 0-.061.192c0 .095.034.174.106.234.07.06.162.11.275.148.113.037.242.072.39.101.145.03.294.062.444.098.156.036.308.079.457.128.149.05.28.118.396.2.116.083.21.186.28.309.07.122.106.274.106.456 0 .257-.052.471-.156.646a1.223 1.223 0 0 1-.404.419c-.166.105-.356.18-.569.222a3.345 3.345 0 0 1-1.317-.004 1.789 1.789 0 0 1-.577-.226 1.303 1.303 0 0 1-.416-.419 1.31 1.31 0 0 1-.177-.653h1.02c0 .116.024.216.072.298l.001-.002Zm5.765.97v-.543h-.023a1.207 1.207 0 0 1-.528.491c-.216.102-.438.15-.664.15-.286 0-.522-.037-.705-.112a1.006 1.006 0 0 1-.434-.32 1.252 1.252 0 0 1-.222-.506 3.168 3.168 0 0 1-.064-.661v-2.4h1.071v2.203c0 .323.051.563.151.722.1.158.28.237.537.237.29 0 .503-.087.634-.26.131-.174.197-.46.197-.857v-2.047h1.071v3.903h-1.021Zm2.822-3.903v.725h.015a1.335 1.335 0 0 1 .499-.6c.111-.074.23-.13.355-.17.126-.042.257-.061.393-.061.07 0 .149.013.234.037v.997c-.051-.01-.112-.02-.182-.027a1.772 1.772 0 0 0-.204-.011c-.197 0-.364.033-.5.098a.872.872 0 0 0-.328.268 1.052 1.052 0 0 0-.177.396 2.11 2.11 0 0 0-.052.491v1.759h-1.072V29.95h1.02v.002Zm1.842 1.2c.015-.251.079-.46.189-.626a1.3 1.3 0 0 1 .422-.4c.171-.1.363-.172.577-.216a3.3 3.3 0 0 1 .645-.064c.196 0 .396.013.597.04.201.028.384.082.551.163.167.08.303.193.408.335.104.144.158.334.158.57v2.03c0 .176.01.345.03.505.02.16.055.281.106.363h-1.088a1.482 1.482 0 0 1-.075-.378c-.172.177-.373.3-.604.37-.232.07-.468.106-.71.106-.186 0-.36-.023-.52-.068a1.19 1.19 0 0 1-.422-.211.975.975 0 0 1-.283-.364 1.21 1.21 0 0 1-.102-.52c0-.22.04-.404.118-.546a.967.967 0 0 1 .303-.344c.123-.085.265-.15.422-.193.159-.042.319-.077.48-.101.16-.025.318-.046.475-.06.156-.016.295-.038.416-.07a.695.695 0 0 0 .286-.132c.07-.057.103-.142.098-.252a.563.563 0 0 0-.057-.275.414.414 0 0 0-.15-.158.61.61 0 0 0-.22-.076 1.723 1.723 0 0 0-.268-.02c-.211 0-.378.046-.499.136-.121.09-.191.243-.211.454H56.08v.003Zm2.477.793a.475.475 0 0 1-.17.095c-.067.022-.14.04-.22.057-.078.015-.16.028-.244.037-.086.01-.172.023-.257.038-.08.015-.16.036-.238.06a.724.724 0 0 0-.204.102.476.476 0 0 0-.14.162.514.514 0 0 0-.051.249c0 .1.018.176.052.242a.4.4 0 0 0 .144.155c.06.038.13.064.21.079.081.014.165.023.25.023.21 0 .374-.036.49-.107a.707.707 0 0 0 .257-.253.786.786 0 0 0 .102-.298c.013-.101.02-.182.02-.242v-.401.002Zm2.891-1.993v.543h.023c.136-.226.312-.39.528-.494a1.53 1.53 0 0 1 .665-.155c.286 0 .521.039.705.118.183.078.328.186.433.323.107.14.18.308.223.506.042.2.063.419.063.66v2.4h-1.071V31.65c0-.323-.05-.563-.15-.722-.102-.159-.28-.237-.537-.237-.291 0-.504.087-.635.26-.13.173-.196.46-.196.857v2.047h-1.072V29.95h1.02l.001.002Zm5.292.702a.748.748 0 0 0-.43.118.93.93 0 0 0-.283.302 1.3 1.3 0 0 0-.155.408c-.03.149-.046.296-.046.441 0 .146.015.285.046.43.03.146.078.279.147.397.069.117.16.215.275.29a.76.76 0 0 0 .422.114c.257 0 .455-.072.592-.216.14-.144.226-.336.26-.578h1.034c-.07.519-.272.913-.604 1.185-.332.271-.757.407-1.276.407-.292 0-.56-.05-.803-.147a1.789 1.789 0 0 1-1.022-1.042 2.199 2.199 0 0 1-.144-.804c0-.29.044-.582.132-.842a1.798 1.798 0 0 1 1.016-1.114 2.12 2.12 0 0 1 .846-.159c.23 0 .455.03.667.09.215.06.406.152.575.275.168.123.305.276.412.461.106.183.167.401.181.653h-1.05c-.07-.448-.335-.672-.793-.672l.001.003Zm3.586 2.266c.16.155.393.234.696.234a.963.963 0 0 0 .56-.162c.155-.108.251-.223.285-.344h.944c-.15.468-.382.803-.695 1.005-.312.2-.689.302-1.132.302-.308 0-.584-.049-.831-.147a1.71 1.71 0 0 1-.627-.419 1.88 1.88 0 0 1-.396-.65 2.375 2.375 0 0 1-.139-.83c0-.303.048-.565.144-.815a1.885 1.885 0 0 1 1.038-1.086c.243-.107.515-.159.811-.159.332 0 .622.064.869.193.247.128.45.301.607.517.158.216.273.463.343.74.07.276.095.565.075.868h-2.815c.015.347.103.599.265.754l-.002-.001Zm1.213-2.053c-.128-.141-.324-.211-.586-.211a.94.94 0 0 0-.427.086.787.787 0 0 0-.416.488 1.229 1.229 0 0 0-.049.257h1.744c-.05-.272-.139-.478-.268-.619l.002-.001Zm6.661-2.402c.257 0 .491.023.702.069.211.045.393.12.543.222.15.103.268.24.35.412.084.172.125.383.125.635 0 .272-.063.5-.185.68a1.33 1.33 0 0 1-.547.444c.332.095.58.263.743.502.164.24.245.527.245.864 0 .272-.052.507-.158.705-.107.2-.249.362-.427.488-.179.126-.383.219-.612.28a2.75 2.75 0 0 1-.705.09H75.66v-5.391H78.2Zm-.15 2.182c.21 0 .384-.05.52-.15.136-.102.203-.265.203-.491a.618.618 0 0 0-.069-.31.49.49 0 0 0-.182-.187.758.758 0 0 0-.26-.095 1.69 1.69 0 0 0-.306-.026h-1.109v1.261h1.201l.002-.002Zm.068 2.287c.117 0 .226-.011.332-.034.107-.023.2-.06.28-.113a.576.576 0 0 0 .193-.216.742.742 0 0 0 .072-.347c0-.276-.078-.474-.234-.592-.155-.118-.363-.177-.618-.177h-1.29v1.48h1.267-.002Zm3.735-2.982v.725h.015a1.33 1.33 0 0 1 .497-.6c.112-.074.23-.13.355-.17.126-.042.257-.061.393-.061.07 0 .149.013.234.037v.997c-.05-.01-.111-.02-.182-.027a1.772 1.772 0 0 0-.204-.011c-.197 0-.363.033-.5.098a.872.872 0 0 0-.328.268 1.052 1.052 0 0 0-.177.396 2.11 2.11 0 0 0-.052.491v1.759h-1.072V29.95h1.02l.001.002Zm1.774 1.106c.095-.254.23-.471.407-.65.177-.178.388-.317.635-.415.247-.098.523-.147.83-.147.308 0 .586.049.835.147.249.098.461.237.638.415.177.179.313.396.408.65.094.254.143.537.143.849 0 .312-.047.594-.143.846a1.83 1.83 0 0 1-.408.644c-.177.179-.39.316-.638.413a2.325 2.325 0 0 1-.834.144c-.308 0-.584-.048-.831-.144a1.762 1.762 0 0 1-.635-.413 1.82 1.82 0 0 1-.407-.644 2.382 2.382 0 0 1-.144-.846c0-.312.047-.595.144-.849Zm.973 1.305c.03.15.082.282.155.401.074.118.17.213.292.283.12.07.271.105.453.105a.906.906 0 0 0 .456-.105.828.828 0 0 0 .295-.283c.073-.118.124-.252.153-.4a2.347 2.347 0 0 0 0-.918 1.19 1.19 0 0 0-.153-.401.872.872 0 0 0-.295-.283.873.873 0 0 0-.456-.11.857.857 0 0 0-.453.11.877.877 0 0 0-.292.283 1.178 1.178 0 0 0-.155.4c-.03.151-.046.305-.046.462 0 .157.015.308.046.456Zm4.757-3.898v2.892l1.352-1.403h1.268l-1.473 1.434 1.638 2.47h-1.3l-1.07-1.745-.416.401v1.343h-1.072v-5.39h1.072l.001-.002Zm4.28 4.455c.16.155.393.234.695.234a.963.963 0 0 0 .56-.162c.155-.108.252-.223.286-.344h.944c-.15.468-.383.803-.695 1.005-.313.2-.689.302-1.132.302-.308 0-.584-.049-.831-.147a1.71 1.71 0 0 1-.627-.419 1.88 1.88 0 0 1-.396-.65 2.375 2.375 0 0 1-.139-.83c0-.303.048-.565.144-.815a1.885 1.885 0 0 1 1.037-1.086c.244-.107.516-.159.812-.159.332 0 .621.064.868.193.247.128.45.301.607.517.159.216.274.463.344.74.07.276.095.565.075.868h-2.815c.014.347.103.599.265.754l-.002-.001Zm1.212-2.053c-.127-.141-.324-.211-.585-.211a.94.94 0 0 0-.427.086.787.787 0 0 0-.416.488 1.229 1.229 0 0 0-.049.257h1.744c-.05-.272-.14-.478-.268-.619l.001-.001Zm2.963-.915v.725h.015a1.33 1.33 0 0 1 .497-.6c.111-.074.23-.13.355-.17.126-.042.257-.061.393-.061.07 0 .149.013.234.037v.997c-.051-.01-.112-.02-.182-.027a1.772 1.772 0 0 0-.204-.011c-.197 0-.364.033-.5.098a.872.872 0 0 0-.328.268 1.052 1.052 0 0 0-.177.396 2.11 2.11 0 0 0-.052.491v1.759H96.79V29.95h1.02l.001.002Zm-86.5-4.473c3.628.444 7.053 1.628 10.454 2.893 2.777 1.032 5.517 2.16 8.345 3.05 1.142.357 2.297.667 3.477.87.232.04.324.107.314.356-.02.533-.012 1.07-.003 1.605.003.182-.054.26-.24.242-.088-.008-.178 0-.266 0H16.957l-.002-.003c-5.505 0-11.008-.003-16.513.008-.344 0-.444-.079-.442-.434.016-2.406.011-4.812.005-7.219 0-.245.04-.378.31-.46 3.603-1.075 7.273-1.362 10.998-.908ZM33.406.6c.326 0 .49.165.49.495v29.993c0 .308-.147.426-.443.354a58.821 58.821 0 0 1-5.049-1.476c-.229-.078-.307-.181-.332-.425-.158-1.656-.338-3.31-.51-4.965-.02-.19-.03-.38-.046-.571-.021-.242-.12-.287-.35-.182-1.238.565-2.483 1.116-3.727 1.669-.929.414-1.865.818-2.787 1.245-.223.103-.395.026-.58-.05-1.626-.66-3.271-1.269-4.965-1.743a30.345 30.345 0 0 0-6.185-1.062c-2.892-.191-5.74.069-8.564.68-.285.063-.35-.024-.349-.297.008-2.331.007-4.661 0-6.992 0-.208.067-.314.252-.41 3.405-1.786 6.806-3.579 10.207-5.37 2.635-1.389 5.27-2.781 7.903-4.172l.082-.04a.232.232 0 0 0 .106-.14c-.724.172-1.426.334-2.125.506L2.446 11.098c-.715.176-1.435.335-2.148.525-.23.062-.29.015-.29-.216.005-2.446.005-4.89 0-7.336 0-.227.082-.29.293-.263 1.575.195 3.153.388 4.728.576 1.387.165 2.776.324 4.163.489l4.882.587c1.387.165 2.776.322 4.165.484.175.02.35.045.525.068v-.07h-.001c-4.7-1.753-9.4-3.505-14.099-5.259L4.68.6h28.726Zm-6.653 15.876c-.164-.018-.294.077-.43.136-2.278 1.008-4.556 2.022-6.836 3.025-.208.091-.264.22-.285.435-.108 1.175-.237 2.35-.355 3.524-.06.598-.11 1.197-.168 1.84.13-.054.212-.085.293-.12 2.606-1.15 5.21-2.303 7.816-3.454.512-.226.507-.231.437-.877-.107-.993-.21-1.986-.314-2.991l-.158-1.518ZM22.962 2.01c-.996.684-1.996 1.366-2.989 2.056-.181.126-.394.22-.538.413l.005.001a.23.23 0 0 0 .226.069c.415-.08.471.13.466.487a181.912 181.912 0 0 0 0 4.432c.005.345-.08.468-.44.445-.457-.029-.491-.01-.495.384v.25c0 .648.32.973.963.973h1.713a14.33 14.33 0 0 1-1.605.767c-.19.08-.306.172-.32.409-.037.556-.117 1.11-.173 1.667-.093.947-.18 1.896-.274 2.845-.023.234.034.298.268.193 2.172-.968 4.348-1.932 6.527-2.887.223-.099.262-.228.234-.444a49.193 49.193 0 0 1-.208-1.893c-.053-.631-.04-.643.598-.649.234-.002.314-.075.304-.308-.016-.356-.01-.713-.002-1.07.004-.178-.062-.26-.245-.247-.115.009-.23-.011-.344.004-.302.039-.394-.085-.39-.388.014-1.4.006-2.802.006-4.203 0-.493.239-.75.716-.772.015 0 .027-.033.053-.067-1.217-.836-2.435-1.669-3.647-2.511-.17-.118-.28-.044-.409.044Zm.23 3.242c.904 0 1.604.715 1.6 1.635-.006.911-.686 1.592-1.593 1.59h-.001c-.9 0-1.62-.726-1.612-1.626a1.616 1.616 0 0 1 1.607-1.599Z" fill="#010101" fill-rule="nonzero"/></svg>