<svg xmlns="http://www.w3.org/2000/svg" width="106" height="82" viewBox="0 0 128 99"><title>puma</title><path fill="#161616" fill-rule="evenodd" d="M112.9 95.3l-.1-.8h.1c.4 0 .6.1.6.4 0 .3-.2.4-.6.4zm.5.4c.3-.1.6-.4.6-.8 0-.5-.4-.8-1.1-.8h-.6v2.8h.5v-1.1l.8 1.1h.7l-.9-1.2zm-.3 1.8c-1.1 0-2-.9-2-2.1 0-1.1.9-2.1 2-2.1s2 .9 2 2.1c.1 1.2-.8 2.1-2 2.1zm0-4.5c-1.3 0-2.4 1.1-2.4 2.4 0 1.3 1.1 2.4 2.4 2.4 1.3 0 2.4-1.1 2.4-2.4 0-1.3-1-2.4-2.4-2.4zM15 3c.9-.3 2.1-2.8 3.2-2.7.5.1 2.5 4.1 2.5 4.1 16.1.8 36 20.3 38.6 22.3 1.2 1 6.4 6.4 16 10.5 3.9 1.7 7.9 2.4 11.5 2.2 4.9-.3 10.3-4.6 13.7-10.4 4.2-7.3 6-20 18.1-27.2 1.7-1 5.5-3.3 7.8-.4 1.8 2.3.3 6.1-1.6 7.9-1.2 1.1-3.3 2.3-7.4 4.2-1.4.6-3.6 2.3-4.5 3-4.3 3.3-7.5 10.9-11 19.1 0 0-1.5 4.1-8.1 8.4-1.1.7-.1 1.3 1.1 2.9 1.6 2 4.7 10.4 4.3 23.1-.1 2.3.8 3.2 1.9 5.1 1.8 3.2 5.3 2.5 5.2 6.7-.1 5.6 4 6.8 2.7 9.4-1 1.9-.6 3.7-.6 5.6 0 .9.5 2.3-1.4 2.2-7.9-.5-7.4-11.1-7.2-14.7.1-.5-.2-1.3-.3-1.4-.4-.3-5.3-4.1-5.6-4.4-6-6.1-9.9-11.5-12.1-17.2-1.5-3.7-3-7.4-5.5-9.8-2.9-2.6-6.4-4.1-9.5-4.1-22-.1-26.5-9.8-32.5-14.6-.2-.1-.7-.4-1-.5-.3 0-.6.4-.8.6-2.3 2.4-4.6 3.2-7.8 3.2-7.4 0-15.4-6.5-16.8-5.1-1.1 1.1-.2 3.5-2.1 3.8-2.9.6-5.8-2.2-5.6-4.6.4-4.3 4.8-5.5 8.6-6 3.2-.4 5.8.5 6.4.6 1.8.2 2.1-1.9 1.8-3.3-.3-1.5-1.7-1.8-3.2-2.2-1.8-.5-3.7.9-5.1.5-1.6-.5-1.7-1.3-3-2.5C3.9 16 2 15.6 2 13.6c0-1.9 2.3-2 2.9-3.7.4-.9.3-1.8.6-2.3.8-1.4 2.2-1.3 3.4-2.5C10.5 3.5 11.3.5 12.1.4 12.8.3 14.2 3.3 15 3z" clip-rule="evenodd"/></svg>