<svg xmlns="http://www.w3.org/2000/svg" width="48" height="24"><path fill="#FFF" fill-rule="evenodd" d="M34.1 19.59H33v-5.36a.54.54 0 0 1 .55-.53c.3 0 .54.23.54.53v5.36zm0 4.35h3.17v-10.6c0-.57-.46-1.04-1.03-1.04h-5.38c-.57 0-1.03.48-1.03 1.06v10.6H33v-2.93h1.1v2.92zm5.44-1.47h-.05v-.45h.05c.22 0 .33.07.33.2 0 .17-.12.25-.34.25zm.8.92l-.52-.7h.03a.48.48 0 0 0 .33-.46c0-.32-.24-.5-.68-.5h-.32v1.66h.3v-.66l.5.66h.37zm-.67-2.05h.02c.64 0 1.17.55 1.17 1.22 0 .68-.53 1.23-1.18 1.23-.67 0-1.2-.55-1.2-1.23 0-.67.53-1.22 1.17-1.22zm1.43 1.22a1.42 1.42 0 0 0-1.44-1.43c-.76 0-1.4.65-1.4 1.43 0 .8.64 1.43 1.43 1.43.77 0 1.4-.64 1.4-1.43zM4.26 14.25v4.8a.54.54 0 0 1-.54.53h-.54V13.7h.54c.28 0 .54.23.54.55zm2.14 6.77c.57 0 1.04-.46 1.04-1.04v-6.62a1.03 1.03 0 0 0-1.02-1.05H0v11.65h3.18v-2.93H6.4zm16.5-8.7h-4.82c-.57 0-1.03.46-1.03 1.04v10.6h3.18v-9.73a.54.54 0 0 1 .54-.53c.3 0 .54.23.54.52v9.73h3.18v-9.73a.53.53 0 0 1 .54-.52c.3 0 .54.23.54.53v9.72h3.2v-10.6c0-.57-.48-1.04-1.05-1.04h-4.8zM12.24 22.54a.55.55 0 0 1-.54-.55v-9.7H8.52V23c0 .52.42.95.94.95h5.56c.53 0 .94-.43.94-.95V12.3h-3.18V22a.55.55 0 0 1-.54.55zM25.87.08c.16-.02.42.56.58.5.16-.05.4-.54.62-.5.1 0 .48.77.48.77 3.1.16 6.92 3.92 7.4 4.3.25.2 1.25 1.23 3.08 2.03.76.34 1.5.48 2.2.43.95-.06 2-.9 2.64-2 .8-1.42 1.15-3.86 3.48-5.25.33-.2 1.07-.63 1.5-.08.34.44.06 1.17-.3 1.52-.23.2-.64.44-1.42.8-.26.13-.7.46-.87.6-.83.63-1.44 2.08-2.1 3.67 0 0-.3.78-1.57 1.62-.22.13-.03.25.2.55.3.4.9 2 .83 4.46-.02.45.16.64.36 1 .33.6 1 .47 1 1.28-.03 1.1.76 1.32.5 1.82-.18.36-.1.72-.1 1.07 0 .18.08.45-.3.43-1.5-.1-1.4-2.14-1.38-2.84.03-.1-.04-.26-.05-.27a44.95 44.95 0 0 1-1.1-.87c-1.14-1.17-1.9-2.22-2.32-3.3-.28-.73-.57-1.44-1.06-1.9-.56-.5-1.24-.8-1.83-.8-4.23 0-5.1-1.87-6.25-2.8a.56.56 0 0 0-.2-.1c-.06 0-.1.1-.15.13-.45.46-.9.62-1.5.62-1.42 0-2.96-1.26-3.23-.98-.2.22-.03.67-.4.74-.56.1-1.12-.43-1.08-.9.08-.82.93-1.06 1.66-1.14.6-.07 1.1.1 1.23.1.34.06.4-.35.34-.62-.07-.3-.34-.35-.62-.43-.34-.1-.72.18-.98.1-.3-.12-.32-.27-.57-.5-.3-.27-.68-.34-.68-.73 0-.36.44-.4.56-.72.08-.16.06-.34.1-.44.16-.27.44-.25.66-.47.3-.3.45-.9.6-.92z"/></svg>