<svg width="115" height="28" xmlns="http://www.w3.org/2000/svg" xmlns:xlink="http://www.w3.org/1999/xlink"><defs><path id="prefix__a" d="M.09.112h11.945v7.37H.09z"/><path id="prefix__c" d="M.048.127h18.219v11.861H.048z"/><path id="prefix__e" d="M.148.082h7.803v15.203H.148z"/><path id="prefix__g" d="M.038.082h7.803v15.203H.038z"/><path id="prefix__i" d="M.106.082h7.803v15.203H.106z"/><path id="prefix__k" d="M0 .162h8.731v8.405H0z"/></defs><g fill="none" fill-rule="evenodd"><path fill="#050101" d="m67.531 19.09-.415 1.952h3.401l-1.151 5.419h3.259l1.152-5.419h3.402l.415-1.952zM101.331 19.09l-1.567 7.371h9.304l.415-1.952h-6.044l.161-.758h5.652l.415-1.951h-5.653l.162-.758h6.044l.415-1.952z"/><g transform="translate(87.644 18.979)"><mask id="prefix__b" fill="#fff"><use xlink:href="#prefix__a"/></mask><path d="M4.501 2.063H8.4c.225 0 .372.17.328.379l-.02.096a.514.514 0 0 1-.49.379H4.32l.181-.854zm6.636 5.419-1.57-2.68c1.154-.249 2.166-1.168 2.399-2.264l.02-.096c.274-1.287-.63-2.33-2.018-2.33H1.657L.09 7.482h3.26l.555-2.614h2.22l1.53 2.614h3.482z" fill="#050101" mask="url(#prefix__b)"/></g><path fill="#050101" d="m84.939 19.09-2.907 2.853-1.362-2.853h-2.739l2.497 4.765-.554 2.605h3.347l.577-2.715 4.889-4.655zM39.076 7.423c-.454-.2-2.48-1.104-2.875-1.304-.501-.236-.85-.428-.78-.76.052-.244.26-.768 1.512-.768 1.227 0 1.088.661 1.045.866l-.189.887h5.409l.027-.107c.338-1.333.63-2.484-1.341-3.325-1.144-.458-2.616-.67-4.632-.67-6.908 0-7.433 2.468-7.63 3.397-.382 1.797.312 2.105 4.826 4.109l.046.02c2 .759 1.987 1.076 1.869 1.63-.068.318-.218.849-1.519.849-1.284 0-1.227-.604-1.178-.832l.222-1.063h-5.54l-.132.003-.025.108c-.323 1.386-.657 2.819 1.733 3.572 1.441.446 4.138.469 4.664.469 7.111 0 7.63-2.444 7.826-3.364.409-1.92-.687-2.446-3.338-3.717M62.275 2.539h5.51L65.264 14.4h-5.51zM75.421 2.539l-2.043 9.609h5.823l-.479 2.252H67.141l2.521-11.861zM96.527 2.522l-1.843 8.669c-.231 1.092-.46 2.167-3.163 2.907-.615.167-1.865.47-4.73.47-7.233 0-6.79-2.084-6.558-3.176l1.886-8.87h5.46l-1.853 8.72c-.068.318.06.974 1.537.974 1.446 0 1.85-.639 1.918-.958l1.857-8.736h5.49z"/><g transform="translate(95.66 2.412)"><mask id="prefix__d" fill="#fff"><use xlink:href="#prefix__c"/></mask><path d="M12.938.127 11.54 6.705l-3.051-5.51C8.119.526 7.349.126 6.432.126H2.57L.048 11.988h5.329L6.775 5.41l3.642 6.578h5.329l2.52-11.86h-5.328z" fill="#050101" mask="url(#prefix__d)"/></g><path d="m49.716 9.2 2.46-4.332.618 4.333h-3.078zm3.82 5.2h5.42L57.263 2.54h-8.807L41.721 14.4h5.043l1.673-2.948h4.679l.42 2.948z" fill="#050101"/><g transform="translate(7.126 .096)"><mask id="prefix__f" fill="#fff"><use xlink:href="#prefix__e"/></mask><path d="M.35.082.193.084a8.078 8.078 0 0 1-.045 15.198A7.601 7.601 0 1 0 .35.082" fill="#050101" mask="url(#prefix__f)"/></g><g transform="translate(10.51 .096)"><mask id="prefix__h" fill="#fff"><use xlink:href="#prefix__g"/></mask><path d="M.24.082.082.084a8.078 8.078 0 0 1-.045 15.198l.201.003A7.601 7.601 0 1 0 .24.082" fill="#050101" mask="url(#prefix__h)"/></g><g transform="translate(13.717 .096)"><mask id="prefix__j" fill="#fff"><use xlink:href="#prefix__i"/></mask><path d="M.307.082.15.084a8.078 8.078 0 0 1-.044 15.198l.201.003a7.601 7.601 0 1 0 0-15.203" fill="#050101" mask="url(#prefix__j)"/></g><g transform="translate(0 3.124)"><mask id="prefix__l" fill="#fff"><use xlink:href="#prefix__k"/></mask><path d="M1.536 6.06a4.104 4.104 0 0 1 7.195-2.7A4.458 4.458 0 0 0 0 4.617c0 1.717.97 3.206 2.392 3.95a4.085 4.085 0 0 1-.856-2.508" fill="#050101" mask="url(#prefix__l)"/></g></g></svg>