<svg xmlns="http://www.w3.org/2000/svg" width="141" viewBox="0 0 140 19.6" style="enable-background:new 0 0 140 19.6" xml:space="preserve"><path d="m0 19.6 2.6-4.1h15c.9 0 1.4-.6 1.4-1.4v-2.4H6.1C2.2 11.7.5 10 .5 6.2V4.5C.6 1.7 2.2 0 4.9 0h.3v6.1c0 .9.6 1.4 1.4 1.4h12.5c2.9 0 4.6 1.7 4.6 4.5v2.1c0 3.7-1.8 5.5-5.6 5.5H0zm90.1-4.2h11.6c1.9 0 3.1-1.2 3.1-3V7.3c0-1.9-1.2-3-3.1-3H90.1v11.1zm-4.6 4.2V0h16.4c4.9 0 7.7 2.8 7.7 7.5v4.6c0 4.7-2.8 7.5-7.7 7.5H85.5zm-22.6-4.2h9.8c1.8 0 2.9-1.1 2.9-2.9V7.1c0-1.7-1.1-2.9-2.9-2.9h-9.8c-1.8 0-2.9 1.1-2.9 2.9v5.4c-.1 1.8 1.1 2.9 2.9 2.9zm9.9 4.2h-10c-4.7 0-7.5-2.7-7.5-7.3v-5C55.3 2.7 58 0 62.7 0h10c4.7 0 7.5 2.7 7.5 7.3v5c.1 4.6-2.7 7.3-7.4 7.3zm38.7 0 11-19.6h6.5l11 19.6h-5.3l-1.9-3.4h-9.4l-2.5-4-4.1 7.4h-5.3zM121 12h9.4l-4.7-8.3L121 12zM9.7 4.1 7.1 0h16.1l-2.6 4.1H9.7zm19.1 15.5V0h4.7v7.6h6.2l8-7.6h6.2L43.6 9.7 54 19.6h-6.6l-8-7.7h-6v7.7h-4.6z"/></svg>