<svg width="86" height="44" xmlns="http://www.w3.org/2000/svg"  viewBox="0 0 173 86"><path d="m77.918 77.13 3.054 6.599 3.084-6.6h.829l-4.742 10.13h-.83l1.245-2.671-3.5-7.458h.86zm59.35 6.907c.352 0 .612.261.612.613 0 .337-.26.613-.612.613a.628.628 0 0 1-.628-.613c0-.352.29-.613.628-.613zm-20.685-7.464 1.331.004a.45.45 0 0 1 .448.452l-.028 7.786a.45.45 0 0 1-.45.448l-1.333-.005a.45.45 0 0 1-.448-.451l.028-7.786a.45.45 0 0 1 .452-.448zm7.411.021c2.524.01 4.422 1.956 4.414 4.36-.01 2.402-1.921 4.317-4.444 4.308-2.524-.009-4.423-1.938-4.414-4.34.009-2.405 1.92-4.337 4.444-4.328zm-12.65 0c1.28.004 2.436.536 3.217 1.354a.406.406 0 0 1-.023.588l-.98.855a.4.4 0 0 1-.548-.017c-.43-.432-1.003-.718-1.673-.72-1.288-.005-2.252 1.004-2.257 2.274-.005 1.305.936 2.27 2.292 2.275.744.002 1.363-.364 1.762-.796a.41.41 0 0 1 .55-.056l1.059.8a.404.404 0 0 1 .064.587c-.938 1.064-2.091 1.528-3.512 1.524-2.575-.009-4.455-1.939-4.447-4.342.009-2.42 1.956-4.335 4.496-4.327zm-9.595 0c2.523.01 4.421 1.956 4.413 4.36-.009 2.402-1.92 4.317-4.444 4.308-2.524-.009-4.423-1.938-4.413-4.34.008-2.405 1.92-4.337 4.444-4.328zm30.524 0c.884.005 1.837.284 2.454.62a.394.394 0 0 1 .142.562l-.624.954a.39.39 0 0 1-.519.129c-.376-.216-.821-.373-1.288-.375-.618-.002-1.134.236-1.136.666-.003 1.08 4.032.667 4.021 3.55-.006 1.596-1.571 2.569-3.322 2.563a5.745 5.745 0 0 1-3.013-.901.391.391 0 0 1-.109-.551l.63-.923a.39.39 0 0 1 .542-.105 3.627 3.627 0 0 0 1.974.59c.601.004 1.066-.287 1.067-.7.004-1.252-4.031-.82-4.021-3.497.005-1.598 1.555-2.587 3.202-2.581zm-38.711 0c.883.005 1.834.283 2.452.62.203.112.27.37.143.564l-.622.95a.392.392 0 0 1-.522.129c-.376-.215-.82-.371-1.286-.373-.618-.002-1.134.236-1.135.666-.004 1.08 4.03.667 4.02 3.55-.005 1.596-1.571 2.569-3.322 2.563a5.757 5.757 0 0 1-3.011-.9.395.395 0 0 1-.11-.553l.628-.92a.393.393 0 0 1 .545-.106 3.631 3.631 0 0 0 1.973.59c.6.003 1.064-.288 1.066-.7.005-1.252-4.031-.821-4.021-3.498.006-1.598 1.554-2.587 3.202-2.581zm72.318.381c2.203 0 3.153 1.435 3.153 3.698V85a.267.267 0 0 1-.262.262h-.405c-.12 0-.222-.1-.222-.262v-4.327c0-1.859-.808-2.829-2.325-2.829-1.515 0-2.486.914-2.486 2.83V85a.267.267 0 0 1-.262.262h-.384c-.142 0-.243-.1-.243-.262v-4.327c0-1.859-.829-2.829-2.344-2.829-1.637 0-2.527 1.233-2.628 1.395V85c0 .161-.08.262-.263.262h-.404c-.14 0-.222-.12-.222-.262v-7.56c0-.142.121-.264.263-.264h.242c.121 0 .202.082.222.203l.102.87c.221-.304 1.151-1.274 2.79-1.274 1.232 0 2.141.526 2.647 1.475.242-.323.925-1.475 3.031-1.475zm-22.814-.202c1.577 0 2.628.81 2.992 1.273.085.105.083.224.004.319l-.247.247c-.142.141-.303.081-.424-.04-.202-.223-1.052-.93-2.325-.93-1.84 0-3.334 1.435-3.334 3.355 0 1.961 1.515 3.416 3.313 3.416 1.516 0 2.305-.95 2.527-1.193.142-.16.263-.16.384-.04l.223.202c.1.101.14.203.06.324-.303.485-1.496 1.556-3.173 1.556-2.284 0-4.245-1.799-4.245-4.245 0-2.426 1.96-4.244 4.245-4.244zm8.164 0c2.264 0 4.062 1.92 4.062 4.225 0 2.365-1.798 4.264-4.062 4.264-2.284 0-4.062-1.9-4.062-4.264 0-2.305 1.778-4.224 4.062-4.224zm-82.042-3.172v5.14c.66-1.12 1.857-1.78 3.238-1.78 2.056 0 3.791 1.55 3.791 3.929 0 2.394-1.735 3.929-3.79 3.929-1.382 0-2.579-.66-3.239-1.781v1.612h-.752V73.6h.752zm82.042 4.02c-1.799 0-3.193 1.516-3.193 3.377 0 1.92 1.394 3.436 3.193 3.436 1.78 0 3.173-1.517 3.173-3.436 0-1.86-1.394-3.377-3.173-3.377zm-78.896.016c-1.61 0-3.146 1.258-3.146 3.253 0 2.01 1.535 3.254 3.146 3.254 1.72 0 3.146-1.243 3.146-3.254 0-1.995-1.427-3.253-3.146-3.253zm51.653 1.016c-1.304-.005-2.201 1.023-2.206 2.276-.005 1.252.886 2.268 2.19 2.273 1.303.005 2.2-1.005 2.205-2.258.003-1.252-.884-2.285-2.19-2.29zm-22.246 0c-1.305-.005-2.2 1.023-2.205 2.276-.005 1.252.884 2.268 2.19 2.273 1.303.005 2.2-1.005 2.204-2.258.004-1.252-.884-2.285-2.189-2.29zm-2.17-29.803c6.09 0 8.73 2.539 8.73 7.122 0 4.604-2.64 7.163-8.73 7.163-6.111 0-8.73-2.54-8.73-7.163 0-4.603 2.619-7.122 8.73-7.122zm15.556.198v7.202l9.9-7.202h5.418l-8.412 6.17 8.412 7.719h-4.94l-6.112-5.775-4.266 3.116v2.659h-3.57v-13.89h3.57zm-71.252 0 9.484 10.436V49.048h3.57v13.889h-4.86L42.605 52.52v10.417h-3.571v-13.89h4.84zm112.048 0 9.483 10.436V49.048h3.572v13.889h-4.86l-9.465-10.417v10.417h-3.57v-13.89h4.84zm-126.891 0 7.183 13.888h-3.949l-1.488-2.957h-8.313l-1.488 2.957h-3.928l7.162-13.888h4.821zm118.794 0v2.837h-11.11v2.817h11.11v2.579h-11.11v2.818h11.11v2.838h-14.682v-13.89h14.682zm-131.096 0v2.996H5.619v3.53h9.92v3.017h-9.92v4.346H2.048v-13.89H16.73zm71.808 0v2.996h-6.746v10.893h-3.57V52.044h-6.747v-2.996h17.063zm11.033 2.798c-3.73 0-5.158 1.289-5.158 4.126 0 2.857 1.447 4.167 5.158 4.167 3.71 0 5.158-1.33 5.158-4.167 0-2.817-1.428-4.126-5.158-4.126zm-72.939-.16-2.838 5.635h5.655l-2.817-5.635zM25.467 0v4.54c11.056.593 17.176 4.048 17.176 11.994H29.811c0-1.283-1.432-1.826-4.344-2.073v3.208c11.598.593 18.657 2.122 18.657 10.365 0 8.735-6.614 11.499-18.657 11.895v4.49h-5.923v-4.49C6.96 39.632 0 36.918 0 27.293h12.833c0 1.432 1.185 2.468 6.712 2.765v-3.751C5.824 25.615.494 22.9.494 15.3c0-7.205 6.712-10.513 19.05-10.809V0h5.923zm87.603 4.441c13.82 0 21.025 4.837 21.568 15.745H121.51c-.494-3.258-3.011-4.887-8.44-4.887-7.601 0-8.884 3.208-8.884 6.861 0 3.702 1.332 6.96 8.884 6.96 5.429 0 7.946-1.679 8.44-4.986h13.128c-.543 10.957-7.7 15.843-21.568 15.843-15.201 0-21.717-5.774-21.717-17.817 0-11.993 6.516-17.719 21.717-17.719zm-52.365.494 9.724 25.666L80.15 4.935h14.116l-14.313 34.55H60.903L46.59 4.934h14.115zm111.933 0v10.859h-23.69v3.7h20.73v10.86h-20.73v9.13h-12.832V4.936h36.522zM25.469 26.505v3.554c4.984-.1 5.823-.642 5.823-1.728 0-1.234-.79-1.579-5.824-1.826zm-5.924-12.192c-5.132.05-6.218.396-6.218 1.629 0 1.185.938 1.284 6.218 1.482v-3.111z" fill="#000" fill-rule="evenodd"/></svg>