<svg xmlns="http://www.w3.org/2000/svg" width="140" height="12"><path fill="#161616" fill-rule="evenodd" d="M7.7 11.9c-.3 0-.6-.2-.8-.4L.1 1.5C0 1 .2.6.5.3c.3-.2.6-.2.9-.2.3 0 .5.2.7.5l5.7 8.2L13.7.2c.5-.2 1-.2 1.3 0 .4.2.5.6.5 1.2l-7 10.2c-.2.2-.5.3-.8.3zm10.9 0c-.2 0-.3-.1-.4-.2-.1-.1-.3-.2-.4-.3l-.2-.3V.9l.3-.5c.1-.1.3-.2.4-.3.2-.1.3-.1.5-.1s.3.1.4.1c.1 0 .3.2.4.3l.2.4V11c-.2.6-.6.9-1.2.9zm10.9 0c-.3 0-.6-.2-.8-.4l-.2-.4V2.3h-5.7c-.5-.1-.8-.4-1-.8V1c.2-.5.6-.8 1-.8h13.5c.6.1 1 .5 1 1.1 0 .3-.2.6-.4.8l-.5.3h-5.7v8.8l-.3.5c-.3.1-.6.2-.9.2zm15.1-5.4h2.3l-2.3-3.3-2.3 3.3h2.3zm7.8 4.1v.5c0 .2-.1.3-.2.4-.2.3-.5.4-.8.4h-.2c-.2 0-.3-.1-.4-.1-.1-.1-.3-.1-.4-.2l-2-2.9h-7.6l-2 2.9c-.1.1-.3.2-.4.2-.1 0-.3.1-.4.1h-.2c-.3 0-.6-.1-.8-.4-.1-.1-.2-.3-.2-.4v-.5c0-.1.1-.2.1-.3L43.4.8c.4-.5.7-.8 1.1-.8.4 0 .7.2 1.1.8l6.5 9.5c.2.1.2.2.3.3zm3 1.3c-.3 0-.6-.2-.8-.4l-.2-.4V.9c.3-.6.7-.8 1.2-.8.3 0 .6.2.9.5l.2.3v8.8H69c.6.2.9.6 1 1.2-.2.6-.5.9-1.1 1H55.4zm29.1-2.5c.1-.1.3-.3.3-.4.1-.2.1-.4.2-.5v-5c0-.1-.1-.3-.1-.4-.1-.2-.2-.3-.3-.4-.1-.1-.3-.2-.4-.3-.2-.1-.3-.1-.4-.1h-9.7v7.4h9.8l.6-.3zm-11.7 2.5c-.1 0-.3-.1-.4-.2-.1 0-.3-.1-.4-.3l-.2-.4V.9c.2-.5.6-.8 1-.8h10.9c.5 0 1 .2 1.5.4s.9.5 1.3.9c.2.3.4.6.6 1 .1.3.2.7.2 1.1v4.9c0 .5-.1 1-.4 1.5-.2.5-.5.9-1 1.2-.3.2-.6.4-1 .6-.4.1-.8.2-1.2.2H72.8zm35.3 0c-.3 0-.6-.2-.8-.4l-.2-.4V.9c.1-.8.5-1.1 1.3-.8l12 8.5V1l.4-.6c.3-.2.6-.3.9-.3.6.1.9.5 1 1v9.8c-.1.9-.6 1.2-1.5.8l-11.8-8.4V11c-.1.3-.3.6-.6.7l-.7.2zm24 0c-.3 0-.6-.2-.8-.4l-.2-.4V2.3h-5.7c-.5-.1-.8-.4-.9-.8V1c.2-.5.6-.8 1-.8H139c.6.1 1 .5 1 1.1 0 .3-.2.6-.4.8l-.5.3h-5.7v8.8l-.3.5c-.3.1-.6.2-1 .2zm-27.9-2.2c.6.1 1 .5 1 1.2-.1.6-.5.9-1.1 1H90.6c-.1 0-.3-.1-.4-.2-.1 0-.3-.1-.4-.3l-.2-.4V.7c.2-.4.6-.7 1-.8h13.5c.7.1 1 .5 1 1.2 0 .2-.1.3-.1.4-.1.1-.2.2-.3.4l-.5.2H91.8v2.3h11l.6.3c.1.2.2.3.3.5.1.2.1.3 0 .6l-.3.5c-.1.1-.3.1-.3.2-.1.1-.2.1-.4.1H91.8v2.9h12.4z" clip-rule="evenodd"/></svg>