<svg xmlns="http://www.w3.org/2000/svg" width="82" height="26"><path fill="#161616" fill-rule="evenodd" d="M82 3.2c0-1.2-.8-2.1-2.2-2.1-1.4 0-2.2.9-2.2 2.1 0 1.2.8 2.1 2.2 2.1 1.4 0 2.2-.9 2.2-2.1zM35.9 14.7c1 0 1.4-.5 1.4-1.4 0-3.4-1.7-5.9-5.5-5.9-3.6 0-5.8 2.5-5.8 6.2s2.3 6.1 5.9 6.1c2.5 0 4.7-.7 4.7-2 0-.7-.6-1.3-1.2-1.3-.9 0-1.8.6-3.5.6s-2.4-.9-2.6-2.3h6.6zm-6.6-2.3c.1-1.8.9-2.5 2.4-2.5 1.6 0 2.3 1 2.4 2.5h-4.8zm45.8-4.2c-.7-.3-2.1-.8-3.9-.8-3.7 0-6.2 2.5-6.2 6.2 0 3.8 2.2 6.1 5.3 6.1 1.5 0 2.6-.5 3.1-1v1.9c0 1.6-.8 2.5-2.7 2.5-2 0-2.8-.9-3.8-.9-.7 0-1.2.7-1.2 1.4 0 1.4 2.7 2.5 4.8 2.5 4.3 0 6.2-2.3 6.2-5.9v-9.9c-.1-1.2-.7-1.7-1.6-2.1zm-1.7 5.3c0 2.2-.9 3.3-2.6 3.3-1.7 0-2.5-.9-2.5-3.2 0-2.1.8-3.4 2.9-3.4 1.4 0 2.2.6 2.2 1v2.3zm-60.7.7c0 3.7 2 5.5 5.6 5.5 3.6 0 5.6-1.8 5.6-5.5v-5c0-1.1-.7-1.8-1.7-1.8s-1.7.7-1.7 1.8v5.5c0 1.5-.9 2.2-2.2 2.2-1.4 0-2.2-.9-2.2-2.2V9.2c0-1.1-.7-1.8-1.7-1.8s-1.7.7-1.7 1.8v5zm50.1-1.3c0-3.6-2-5.5-5.6-5.5-3.6 0-5.6 1.8-5.6 5.5v5c0 1 .7 1.8 1.7 1.8S55 19 55 17.9v-5.5c0-1.5.8-2.2 2.2-2.2 1.4 0 2.2.9 2.2 2.2v5.5c0 1 .7 1.8 1.7 1.8s1.7-.7 1.7-1.8v-5zm-17.1 4.9c0 1.1.7 1.8 1.7 1.8s1.7-.7 1.7-1.8V9.3c0-1-.7-1.8-1.7-1.8s-1.7.7-1.7 1.8v8.5zm-6.1 0c0 1.1.7 1.8 1.7 1.8s1.7-.7 1.7-1.8v-16C43 .7 42.3 0 41.3 0s-1.7.7-1.7 1.8v16zM5.5 15.7l2.1-7.1c.2-.5.6-1.1 1.5-1.1s1.8.5 1.8 1.6c0 .3-.1.5-.2.9l-2.8 7.7c-.5 1.5-.9 2-2.3 2h-.2c-1.4 0-1.9-.5-2.4-2L.2 10c-.1-.4-.2-.6-.2-.9 0-1 .9-1.6 1.8-1.6s1.3.7 1.5 1.1l2.1 7.1h.1z" clip-rule="evenodd"/></svg>